<svg width="20" height="20" viewBox="0 0 20 20" fill="none" xmlns="http://www.w3.org/2000/svg">
<path d="M18.3304 5.91811C18.336 5.40624 18.2801 4.89555 18.1638 4.39703C17.9436 3.48715 17.4263 2.79259 16.6499 2.28348C16.2541 2.02877 15.8106 1.85721 15.3464 1.77923C14.9875 1.71742 14.6244 1.68259 14.2603 1.67504C14.2325 1.67296 14.2027 1.6681 14.1742 1.66602L5.82491 1.66602C5.71982 1.6725 5.61449 1.67852 5.50894 1.68407C4.99019 1.71394 4.47422 1.76951 3.98602 1.9619C3.05824 2.33002 2.3888 2.9704 1.99644 3.89278C1.86311 4.20394 1.79366 4.53524 1.74436 4.87072C1.70651 5.14247 1.68333 5.41606 1.67491 5.6903C1.67491 5.71252 1.67005 5.73336 1.66797 5.75489L1.66797 14.2445L1.68672 14.539C1.72144 15.1051 1.79366 15.667 2.03186 16.1872C2.48325 17.1735 3.2388 17.8215 4.27769 18.1326C4.56935 18.2209 4.87213 18.2625 5.1756 18.291C5.56102 18.3278 5.94644 18.3327 6.33324 18.3327L13.993 18.3327C14.3574 18.3316 14.7215 18.3084 15.0832 18.2632C15.6541 18.1896 16.1916 18.0201 16.677 17.7006C17.2526 17.3283 17.7065 16.7953 17.9825 16.1677C18.1117 15.876 18.186 15.5635 18.2395 15.2481C18.318 14.7793 18.3353 14.3049 18.3346 13.8312C18.3332 11.1919 18.3346 8.55605 18.3325 5.91811H18.3304ZM13.87 8.68941V12.6567C13.87 12.9464 13.8298 13.2311 13.7006 13.4944C13.4992 13.9042 13.1728 14.1625 12.7367 14.2862C12.4941 14.3556 12.2464 14.3957 11.9937 14.4063C11.3339 14.4376 10.7624 13.9896 10.6443 13.3395C10.5948 13.0588 10.6384 12.7696 10.7685 12.516C10.8987 12.2624 11.1082 12.0584 11.3652 11.9351C11.5895 11.824 11.8305 11.7614 12.0721 11.7101C12.3346 11.6531 12.5985 11.6038 12.8596 11.5434C13.0499 11.4996 13.177 11.3836 13.2138 11.185C13.2228 11.1408 13.2274 11.0959 13.2277 11.0509C13.2277 9.79006 13.2272 8.52989 13.2263 7.27042C13.226 7.22698 13.22 7.18376 13.2082 7.14193C13.1805 7.03775 13.1041 6.97315 12.9971 6.9794C12.886 6.98635 12.7763 7.00371 12.6673 7.02524C12.1395 7.12989 11.6117 7.23546 11.0839 7.34196L9.46935 7.66841L8.51518 7.86149L8.48185 7.87052C8.28949 7.924 8.22004 8.01152 8.21102 8.21086C8.21009 8.24003 8.21009 8.27013 8.21102 8.30115C8.20963 10.1084 8.21102 11.9156 8.20893 13.7222C8.20893 14.0139 8.17629 14.3028 8.05963 14.5744C7.86657 15.0189 7.52491 15.2968 7.0638 15.4308C6.82028 15.5012 6.57144 15.541 6.31727 15.5503C5.6506 15.5753 5.09852 15.1335 4.98394 14.4779C4.88672 13.9139 5.14366 13.3075 5.78533 13.0367C6.03324 12.9325 6.29227 12.8755 6.55477 12.8213C6.75407 12.7797 6.95407 12.7408 7.15199 12.6984C7.41773 12.6401 7.55662 12.4748 7.56866 12.2025V12.0983L7.57004 5.92923C7.57004 5.8438 7.57907 5.75559 7.59921 5.67224C7.64782 5.47429 7.78879 5.36108 7.97838 5.31246C8.15546 5.26662 8.33602 5.23467 8.51588 5.19785C9.02514 5.09413 9.53439 4.99134 10.0437 4.88947L11.62 4.56997L13.0159 4.29006C13.1686 4.2602 13.3228 4.22894 13.4763 4.21644C13.6916 4.19908 13.8395 4.33452 13.861 4.55122C13.8666 4.60215 13.8693 4.65378 13.8693 4.70611C13.8707 6.03318 13.8707 7.36025 13.8693 8.68733L13.87 8.68941Z" fill="white"/>
</svg>
