<svg width="375" height="6" viewBox="0 0 375 6" fill="none" xmlns="http://www.w3.org/2000/svg">
<g clip-path="url(#clip0_967_1385)">
<line x1="6.75" y1="4.75" x2="6.75" y2="1.25" stroke="white" stroke-opacity="0.2" stroke-width="2.5" stroke-linecap="round"/>
<line x1="14.75" y1="4.75" x2="14.75" y2="1.25" stroke="white" stroke-opacity="0.2" stroke-width="2.5" stroke-linecap="round"/>
<line x1="22.75" y1="4.75" x2="22.75" y2="1.25" stroke="white" stroke-opacity="0.2" stroke-width="2.5" stroke-linecap="round"/>
<line x1="30.75" y1="4.75" x2="30.75" y2="1.25" stroke="white" stroke-opacity="0.2" stroke-width="2.5" stroke-linecap="round"/>
<line x1="38.75" y1="4.75" x2="38.75" y2="1.25" stroke="white" stroke-opacity="0.2" stroke-width="2.5" stroke-linecap="round"/>
<line x1="46.75" y1="4.75" x2="46.75" y2="1.25" stroke="white" stroke-opacity="0.2" stroke-width="2.5" stroke-linecap="round"/>
<line x1="54.75" y1="4.75" x2="54.75" y2="1.25" stroke="white" stroke-opacity="0.2" stroke-width="2.5" stroke-linecap="round"/>
<line x1="62.75" y1="4.75" x2="62.75" y2="1.25" stroke="white" stroke-opacity="0.2" stroke-width="2.5" stroke-linecap="round"/>
<line x1="70.75" y1="4.75" x2="70.75" y2="1.25" stroke="white" stroke-opacity="0.2" stroke-width="2.5" stroke-linecap="round"/>
<line x1="78.75" y1="4.75" x2="78.75" y2="1.25" stroke="white" stroke-opacity="0.2" stroke-width="2.5" stroke-linecap="round"/>
<line x1="86.75" y1="4.75" x2="86.75" y2="1.25" stroke="white" stroke-opacity="0.2" stroke-width="2.5" stroke-linecap="round"/>
<line x1="94.75" y1="4.75" x2="94.75" y2="1.25" stroke="white" stroke-opacity="0.2" stroke-width="2.5" stroke-linecap="round"/>
<line x1="102.75" y1="4.75" x2="102.75" y2="1.25" stroke="white" stroke-opacity="0.2" stroke-width="2.5" stroke-linecap="round"/>
<line x1="110.75" y1="4.75" x2="110.75" y2="1.25" stroke="white" stroke-opacity="0.2" stroke-width="2.5" stroke-linecap="round"/>
<line x1="118.75" y1="4.75" x2="118.75" y2="1.25" stroke="white" stroke-opacity="0.2" stroke-width="2.5" stroke-linecap="round"/>
<line x1="126.75" y1="4.75" x2="126.75" y2="1.25" stroke="white" stroke-opacity="0.2" stroke-width="2.5" stroke-linecap="round"/>
<line x1="134.75" y1="4.75" x2="134.75" y2="1.25" stroke="white" stroke-opacity="0.2" stroke-width="2.5" stroke-linecap="round"/>
<line x1="142.75" y1="4.75" x2="142.75" y2="1.25" stroke="white" stroke-opacity="0.2" stroke-width="2.5" stroke-linecap="round"/>
<line x1="150.75" y1="4.75" x2="150.75" y2="1.25" stroke="white" stroke-opacity="0.2" stroke-width="2.5" stroke-linecap="round"/>
<line x1="158.75" y1="4.75" x2="158.75" y2="1.25" stroke="white" stroke-opacity="0.2" stroke-width="2.5" stroke-linecap="round"/>
<line x1="166.75" y1="4.75" x2="166.75" y2="1.25" stroke="white" stroke-opacity="0.2" stroke-width="2.5" stroke-linecap="round"/>
<line x1="174.75" y1="4.75" x2="174.75" y2="1.25" stroke="white" stroke-opacity="0.2" stroke-width="2.5" stroke-linecap="round"/>
<line x1="182.75" y1="4.75" x2="182.75" y2="1.25" stroke="white" stroke-opacity="0.2" stroke-width="2.5" stroke-linecap="round"/>
<line x1="190.75" y1="4.75" x2="190.75" y2="1.25" stroke="white" stroke-opacity="0.2" stroke-width="2.5" stroke-linecap="round"/>
<line x1="198.75" y1="4.75" x2="198.75" y2="1.25" stroke="white" stroke-opacity="0.2" stroke-width="2.5" stroke-linecap="round"/>
<line x1="206.75" y1="4.75" x2="206.75" y2="1.25" stroke="white" stroke-opacity="0.2" stroke-width="2.5" stroke-linecap="round"/>
<line x1="214.75" y1="4.75" x2="214.75" y2="1.25" stroke="white" stroke-opacity="0.2" stroke-width="2.5" stroke-linecap="round"/>
<line x1="222.75" y1="4.75" x2="222.75" y2="1.25" stroke="white" stroke-opacity="0.2" stroke-width="2.5" stroke-linecap="round"/>
<line x1="230.75" y1="4.75" x2="230.75" y2="1.25" stroke="white" stroke-opacity="0.2" stroke-width="2.5" stroke-linecap="round"/>
<line x1="238.75" y1="4.75" x2="238.75" y2="1.25" stroke="white" stroke-opacity="0.2" stroke-width="2.5" stroke-linecap="round"/>
<line x1="246.75" y1="4.75" x2="246.75" y2="1.25" stroke="white" stroke-opacity="0.2" stroke-width="2.5" stroke-linecap="round"/>
<line x1="254.75" y1="4.75" x2="254.75" y2="1.25" stroke="white" stroke-opacity="0.2" stroke-width="2.5" stroke-linecap="round"/>
<line x1="262.75" y1="4.75" x2="262.75" y2="1.25" stroke="white" stroke-opacity="0.2" stroke-width="2.5" stroke-linecap="round"/>
<line x1="270.75" y1="4.75" x2="270.75" y2="1.25" stroke="white" stroke-opacity="0.2" stroke-width="2.5" stroke-linecap="round"/>
<line x1="278.75" y1="4.75" x2="278.75" y2="1.25" stroke="white" stroke-opacity="0.2" stroke-width="2.5" stroke-linecap="round"/>
<line x1="286.75" y1="4.75" x2="286.75" y2="1.25" stroke="white" stroke-opacity="0.2" stroke-width="2.5" stroke-linecap="round"/>
<line x1="294.75" y1="4.75" x2="294.75" y2="1.25" stroke="white" stroke-opacity="0.2" stroke-width="2.5" stroke-linecap="round"/>
<line x1="302.75" y1="4.75" x2="302.75" y2="1.25" stroke="white" stroke-opacity="0.2" stroke-width="2.5" stroke-linecap="round"/>
<line x1="310.75" y1="4.75" x2="310.75" y2="1.25" stroke="white" stroke-opacity="0.2" stroke-width="2.5" stroke-linecap="round"/>
<line x1="318.75" y1="4.75" x2="318.75" y2="1.25" stroke="white" stroke-opacity="0.2" stroke-width="2.5" stroke-linecap="round"/>
<line x1="326.75" y1="4.75" x2="326.75" y2="1.25" stroke="white" stroke-opacity="0.2" stroke-width="2.5" stroke-linecap="round"/>
<line x1="334.75" y1="4.75" x2="334.75" y2="1.25" stroke="white" stroke-opacity="0.2" stroke-width="2.5" stroke-linecap="round"/>
<line x1="342.75" y1="4.75" x2="342.75" y2="1.25" stroke="white" stroke-opacity="0.2" stroke-width="2.5" stroke-linecap="round"/>
<line x1="350.75" y1="4.75" x2="350.75" y2="1.25" stroke="white" stroke-opacity="0.2" stroke-width="2.5" stroke-linecap="round"/>
<line x1="358.75" y1="4.75" x2="358.75" y2="1.25" stroke="white" stroke-opacity="0.2" stroke-width="2.5" stroke-linecap="round"/>
<line x1="366.75" y1="4.75" x2="366.75" y2="1.25" stroke="white" stroke-opacity="0.2" stroke-width="2.5" stroke-linecap="round"/>
<line x1="374.75" y1="4.75" x2="374.75" y2="1.25" stroke="white" stroke-opacity="0.2" stroke-width="2.5" stroke-linecap="round"/>
</g>
<defs>
<clipPath id="clip0_967_1385">
<rect width="375" height="6" fill="white"/>
</clipPath>
</defs>
</svg>
