<svg width="20" height="20" viewBox="0 0 20 20" fill="none" xmlns="http://www.w3.org/2000/svg">
<path d="M5.9258 3.72852C6.52506 3.72852 7.0714 3.78134 7.56491 3.88718C8.05843 3.99293 8.48141 4.16641 8.83387 4.40701C9.18632 4.64792 9.45954 4.96816 9.65343 5.36773C9.84731 5.76731 9.94425 6.26072 9.94425 6.84818C9.94425 7.48276 9.80029 8.01149 9.51246 8.43437C9.22444 8.85736 8.79865 9.20391 8.2347 9.47423C9.01014 9.69752 9.5888 10.0884 9.97076 10.6462C10.3523 11.2045 10.5437 11.8773 10.5437 12.6643C10.5437 13.2988 10.4204 13.8482 10.1735 14.3124C9.92684 14.7767 9.5947 15.1556 9.17782 15.4489C8.76063 15.7429 8.28473 15.9601 7.75019 16.1013C7.21231 16.2426 6.6584 16.3136 6.10227 16.3126H0.00390625L0.00390625 3.72852L5.9258 3.72852ZM5.57334 8.82224C6.06686 8.82224 6.47213 8.70479 6.78947 8.46969C7.10671 8.23479 7.26528 7.85282 7.26528 7.32409C7.26528 7.03046 7.21246 6.78945 7.10671 6.60147C7.00097 6.41359 6.86 6.26642 6.68373 6.16088C6.50745 6.05503 6.30476 5.9819 6.07566 5.94048C5.84001 5.89887 5.60114 5.87825 5.36185 5.87886L2.77102 5.87886L2.77102 8.82234L5.57334 8.82224ZM5.73191 14.1624C6.00203 14.1624 6.26064 14.1359 6.50735 14.083C6.75406 14.0301 6.97135 13.942 7.15953 13.8185C7.34732 13.6954 7.49718 13.5278 7.60893 13.3162C7.72048 13.1048 7.7763 12.8346 7.7763 12.5055C7.7763 11.8595 7.59402 11.3983 7.22996 11.122C6.86561 10.8459 6.3839 10.7078 5.78473 10.7078H2.77102L2.77102 14.1622L5.73191 14.1624ZM14.0259 13.8981C14.4019 14.2626 14.9424 14.4444 15.6474 14.4444C16.1525 14.4444 16.5874 14.3183 16.9515 14.0655C17.3158 13.8132 17.5391 13.5457 17.6213 13.2636H19.8244C19.472 14.3563 18.9313 15.1378 18.203 15.6076C17.4742 16.0777 16.593 16.3126 15.5591 16.3126C14.8424 16.3126 14.196 16.1981 13.6204 15.9689C13.0445 15.7399 12.5568 15.4137 12.1576 14.9907C11.758 14.5679 11.4496 14.0629 11.2322 13.4752C11.0147 12.8878 10.9063 12.2414 10.9063 11.5364C10.9063 10.8551 11.0176 10.2207 11.2411 9.6331C11.4641 9.04574 11.7813 8.53752 12.1929 8.10843C12.6039 7.67974 13.0946 7.3419 13.6646 7.09509C14.2343 6.84828 14.8659 6.72503 15.5592 6.72503C16.3347 6.72503 17.0102 6.87479 17.5862 7.17442C18.1617 7.47395 18.6348 7.87683 19.005 8.38165C19.3751 8.88697 19.6422 9.46282 19.8071 10.1088C19.9715 10.7552 20.0301 11.4307 19.9833 12.1357L13.4093 12.1357C13.4444 12.9462 13.6497 13.534 14.0259 13.8981ZM16.8547 9.10417C16.5551 8.77532 16.0996 8.61065 15.4889 8.61065C15.0893 8.61065 14.7575 8.67838 14.4931 8.81334C14.2287 8.9487 14.0171 9.11577 13.8585 9.31566C13.7 9.51555 13.5881 9.72714 13.5237 9.95014C13.459 10.1734 13.4208 10.3732 13.4091 10.5494L17.4803 10.5494C17.3629 9.91482 17.1544 9.43321 16.8547 9.10417ZM12.9817 4.36749L18.0685 4.36749V5.77791L12.9817 5.77791V4.36749Z" fill="white"/>
</svg>
