<svg width="16" height="15" viewBox="0 0 16 15" fill="none" xmlns="http://www.w3.org/2000/svg">
<path d="M15.9999 13.0001C15.9999 13.3979 15.8418 13.7794 15.5605 14.0607C15.2792 14.342 14.8977 14.5001 14.4999 14.5001C14.102 14.5001 13.7205 14.342 13.4392 14.0607C13.1579 13.7794 12.9999 13.3979 12.9999 13.0001C12.9999 11.8807 13.973 10.3895 14.0836 10.2226C14.1292 10.154 14.1911 10.0978 14.2637 10.0589C14.3364 10.02 14.4175 9.99959 14.4999 9.99959C14.5822 9.99959 14.6633 10.02 14.736 10.0589C14.8086 10.0978 14.8705 10.154 14.9161 10.2226C15.0267 10.3895 15.9999 11.8807 15.9999 13.0001ZM8.28048 7.78071C8.42137 7.63981 8.50053 7.44871 8.50053 7.24946C8.50053 7.0502 8.42137 6.8591 8.28048 6.71821C8.13958 6.57731 7.94848 6.49816 7.74923 6.49816C7.54997 6.49816 7.35887 6.57731 7.21798 6.71821C7.07942 6.85948 7.00231 7.04979 7.00345 7.24767C7.00458 7.44554 7.08387 7.63495 7.22404 7.77462C7.36421 7.9143 7.5539 7.99292 7.75178 7.99336C7.94966 7.99379 8.13969 7.91601 8.28048 7.77696V7.78071ZM2.35298 1.14633C2.25916 1.05259 2.13194 0.999965 1.99932 1.00002C1.86669 1.00008 1.73953 1.05282 1.64579 1.14664C1.55205 1.24046 1.49942 1.36768 1.49948 1.5003C1.49954 1.63293 1.55228 1.76009 1.6461 1.85383L3.6836 3.89133L4.39048 3.18758L2.35298 1.14633ZM14.658 8.69196C14.7388 8.665 14.8113 8.61784 14.8688 8.55497C14.9263 8.4921 14.9667 8.41559 14.9863 8.3327C15.0059 8.24981 15.004 8.16329 14.9808 8.08134C14.9575 7.9994 14.9138 7.92474 14.8536 7.86446L7.63548 0.646331C7.54172 0.552633 7.41459 0.5 7.28204 0.5C7.14949 0.5 7.02236 0.552633 6.9286 0.646331L4.39048 3.18758L6.91735 5.71383C7.28703 5.51376 7.71638 5.45344 8.12688 5.5439C8.53738 5.63436 8.90161 5.86956 9.15296 6.20648C9.40431 6.5434 9.52599 6.95954 9.49574 7.3788C9.4655 7.79806 9.28536 8.19243 8.98826 8.48979C8.69116 8.78715 8.29696 8.96764 7.87772 8.99825C7.45849 9.02886 7.04224 8.90755 6.7051 8.6565C6.36795 8.40545 6.13244 8.04143 6.04162 7.63101C5.95079 7.22059 6.01073 6.79119 6.21048 6.42133L3.6836 3.89133L0.937352 6.63571C0.656068 6.91701 0.498047 7.29852 0.498047 7.69633C0.498047 8.09414 0.656068 8.47566 0.937352 8.75696L6.24298 14.0626C6.52428 14.3439 6.90579 14.5019 7.3036 14.5019C7.70141 14.5019 8.08293 14.3439 8.36423 14.0626L13.2699 9.15696L14.658 8.69196Z" fill="white"/>
</svg>
