<svg width="20" height="20" viewBox="0 0 20 20" fill="none" xmlns="http://www.w3.org/2000/svg">
<path d="M4.73642 2.62945C6.86761 4.19885 9.1598 7.3809 10.0015 9.08841C10.8433 7.3809 13.1354 4.19885 15.2666 2.62945C16.8044 1.49707 19.296 0.620948 19.296 3.40892C19.296 3.96574 18.9706 8.08644 18.7797 8.75551C18.1161 11.0812 15.6983 11.6745 13.5474 11.3154C17.3069 11.943 18.2633 14.0219 16.1978 16.1007C12.2752 20.0488 10.5599 15.1101 10.1204 13.8446C10.0398 13.6127 10.002 13.5042 10.0015 13.5964C10.001 13.5041 9.96326 13.6127 9.88266 13.8446C9.44321 15.1101 7.72786 20.0489 3.80522 16.1007C1.73974 14.0219 2.69613 11.943 6.45561 11.3154C4.3048 11.6745 1.88692 11.0812 1.22338 8.75551C1.03248 8.08644 0.707031 3.96574 0.707031 3.40892C0.707031 0.620948 3.19868 1.49707 4.73642 2.62945Z" fill="white"/>
</svg>
