<svg width="32" height="32" viewBox="0 0 32 32" fill="none" xmlns="http://www.w3.org/2000/svg">
<path d="M4 21.0863L10.7925 14.2925C10.8854 14.1995 10.9957 14.1258 11.1171 14.0754C11.2385 14.0251 11.3686 13.9992 11.5 13.9992C11.6314 13.9992 11.7615 14.0251 11.8829 14.0754C12.0043 14.1258 12.1146 14.1995 12.2075 14.2925L17.0825 19.1675M13 26H5C4.73478 26 4.48043 25.8946 4.29289 25.7071C4.10536 25.5196 4 25.2652 4 25L4 7C4 6.73478 4.10536 6.48043 4.29289 6.29289C4.48043 6.10536 4.73478 6 5 6L27 6C27.2652 6 27.5196 6.10536 27.7071 6.29289C27.8946 6.48043 28 6.73478 28 7V11L22 13L20 18L15 20L13 26ZM17.2162 26L18.2087 23.025L23.0837 21.0775L25.0312 16.2025L28.0062 15.21L28.0062 25C28.0062 25.2652 27.9009 25.5196 27.7134 25.7071C27.5258 25.8946 27.2715 26 27.0062 26H17.2162Z" stroke="white" stroke-opacity="0.5" stroke-width="2" stroke-linecap="round" stroke-linejoin="round"/>
</svg>
