<svg width="27" height="27" viewBox="0 0 27 27" fill="none" xmlns="http://www.w3.org/2000/svg">
<path d="M25.2344 13.7661C25.2344 7.13869 19.8618 1.76611 13.2344 1.76611C6.60696 1.76611 1.23437 7.13869 1.23437 13.7661C1.23437 20.3935 6.60696 25.7661 13.2344 25.7661C19.8618 25.7661 25.2344 20.3935 25.2344 13.7661Z" fill="url(#paint0_linear_1214_69459)" stroke="url(#paint1_linear_1214_69459)" stroke-width="1.5" stroke-linecap="round" stroke-linejoin="round"/>
<g filter="url(#filter0_dd_1214_69459)">
<path d="M22.2344 13.7661C22.2344 8.79555 18.2049 4.76611 13.2344 4.76611C8.26381 4.76611 4.23437 8.79555 4.23437 13.7661C4.23437 18.7367 8.26381 22.7661 13.2344 22.7661C18.2049 22.7661 22.2344 18.7367 22.2344 13.7661Z" fill="url(#paint2_linear_1214_69459)"/>
</g>
<path d="M9.23438 13.6233L11.6344 15.7661L17.2344 10.7661" stroke="white" stroke-width="2" stroke-linecap="round" stroke-linejoin="round"/>
<defs>
<filter id="filter0_dd_1214_69459" x="0.234375" y="0.766113" width="26" height="26" filterUnits="userSpaceOnUse" color-interpolation-filters="sRGB">
<feFlood flood-opacity="0" result="BackgroundImageFix"/>
<feColorMatrix in="SourceAlpha" type="matrix" values="0 0 0 0 0 0 0 0 0 0 0 0 0 0 0 0 0 0 127 0" result="hardAlpha"/>
<feOffset/>
<feGaussianBlur stdDeviation="1"/>
<feComposite in2="hardAlpha" operator="out"/>
<feColorMatrix type="matrix" values="0 0 0 0 0.14902 0 0 0 0 0.717647 0 0 0 0 1 0 0 0 0.25 0"/>
<feBlend mode="normal" in2="BackgroundImageFix" result="effect1_dropShadow_1214_69459"/>
<feColorMatrix in="SourceAlpha" type="matrix" values="0 0 0 0 0 0 0 0 0 0 0 0 0 0 0 0 0 0 127 0" result="hardAlpha"/>
<feOffset/>
<feGaussianBlur stdDeviation="2"/>
<feComposite in2="hardAlpha" operator="out"/>
<feColorMatrix type="matrix" values="0 0 0 0 0.14902 0 0 0 0 0.717647 0 0 0 0 1 0 0 0 0.25 0"/>
<feBlend mode="normal" in2="effect1_dropShadow_1214_69459" result="effect2_dropShadow_1214_69459"/>
<feBlend mode="normal" in="SourceGraphic" in2="effect2_dropShadow_1214_69459" result="shape"/>
</filter>
<linearGradient id="paint0_linear_1214_69459" x1="13.2344" y1="1.76611" x2="13.2344" y2="56.3661" gradientUnits="userSpaceOnUse">
<stop stop-color="white" stop-opacity="0.1"/>
<stop offset="1"/>
</linearGradient>
<linearGradient id="paint1_linear_1214_69459" x1="3.63438" y1="4.16611" x2="25.2344" y2="24.5661" gradientUnits="userSpaceOnUse">
<stop stop-color="white"/>
<stop offset="0.451923" stop-color="white" stop-opacity="0.2"/>
<stop offset="0.995192" stop-color="white" stop-opacity="0.8"/>
</linearGradient>
<linearGradient id="paint2_linear_1214_69459" x1="4.23437" y1="13.7661" x2="22.2344" y2="13.7661" gradientUnits="userSpaceOnUse">
<stop stop-color="#26B7FF"/>
<stop offset="1" stop-color="#1D4AFE"/>
</linearGradient>
</defs>
</svg>
