<svg width="20" height="20" viewBox="0 0 20 20" fill="none" xmlns="http://www.w3.org/2000/svg">
<path d="M19.9999 7.95154C19.9999 8.2182 19.8082 8.58737 19.719 8.76487C19.394 9.45904 18.8607 10.5249 18.8607 11.7524C18.8607 14.4299 17.9149 15.7615 17.1749 16.4424C16.3024 17.2542 15.1566 17.7084 13.9649 17.7149C12.9838 17.7146 12.0234 17.4323 11.1982 16.9015C10.0599 16.1474 9.34905 14.9632 8.62488 13.7807C8.04821 12.8199 7.64905 12.064 7.02655 10.6007C6.67571 9.75237 6.34905 8.92404 6.06821 8.02237C5.93488 7.59404 5.94988 7.2682 6.11238 7.06154C6.27488 6.86987 6.49738 6.7807 6.76238 6.7657C7.22071 6.7507 7.39905 7.07654 7.66488 7.91904C7.82738 8.45154 8.15321 9.22154 8.34488 9.64987C8.59655 10.1674 8.95155 10.8624 9.11405 11.0999C9.24738 11.3082 9.36571 11.3665 9.49821 11.3665C9.73488 11.3665 9.91238 11.2332 9.91238 10.9974C9.91238 10.864 9.77905 10.6424 9.70571 10.509C9.57238 10.2574 9.29155 9.75487 9.09905 9.3257C8.8705 8.79996 8.65845 8.2672 8.46321 7.7282C8.34488 7.41737 8.21238 6.97404 8.07905 6.5307C7.87238 5.8507 7.76821 5.43654 7.76821 5.12487C7.76821 4.65154 8.12321 4.34154 8.65571 4.34154C9.03988 4.34154 9.29155 4.5332 9.45405 5.2282C9.58738 5.86404 9.82405 6.89987 10.164 7.7132C10.3857 8.2457 10.7107 8.95654 10.9032 9.31154C11.0215 9.5182 11.154 9.6957 11.154 9.76987C11.154 9.8732 10.9624 10.0365 10.799 10.2574C10.6957 10.3907 10.6515 10.4799 10.6515 10.5824C10.6515 10.6715 10.7107 10.7607 10.799 10.879C10.8882 10.9974 10.9765 11.1157 11.0807 11.1157C11.154 11.1157 11.199 11.0857 11.2432 11.0265C11.6642 10.494 12.1875 10.0511 12.7824 9.72404C13.4624 9.33987 14.1582 9.14737 14.7057 9.02904C14.9715 8.9707 15.0457 8.9107 15.0457 8.76237C15.0457 8.5857 14.9124 8.48237 14.7349 8.46737C14.6015 8.45237 14.484 8.46737 14.2765 8.48237C14.129 8.49737 14.0549 8.4232 13.9665 8.2307C13.6999 7.66904 13.1832 6.72154 12.8724 5.50904C12.7184 4.92665 12.6097 4.33321 12.5474 3.73404C12.5024 3.4082 12.5615 3.28987 12.724 3.14237C12.9315 2.96487 13.3007 2.8907 13.5824 2.96487C13.9215 3.0532 14.099 3.31987 14.2765 4.35654C14.3657 4.84404 14.5132 5.46487 14.6907 5.9982C14.9124 6.6782 15.1932 7.24154 15.6224 7.9957C15.859 8.40987 16.154 8.8382 16.4649 9.25404C16.4057 9.43154 16.3024 9.54904 15.9624 9.8307C15.6224 10.1124 15.2824 10.4074 14.9715 10.954C14.7499 11.3532 14.6465 11.7965 14.6465 12.0924C14.6465 12.3732 14.7049 12.4324 14.8832 12.4324C15.1932 12.4324 15.4449 12.374 15.4599 12.2407C15.5332 11.7074 15.6224 11.3682 15.9182 10.9674C16.0949 10.7457 16.4057 10.4649 16.6574 10.2424C17.1299 9.85904 17.2932 9.63654 17.4557 9.08987C17.529 8.8382 17.6182 8.60154 17.7365 8.37987C18.0174 7.8632 18.5199 7.27154 19.3049 7.27154C19.5565 7.27154 19.7632 7.34487 19.8965 7.55237C19.9639 7.67467 19.9994 7.81193 19.9999 7.95154ZM10.5065 6.0532C10.6399 6.60154 10.8024 7.07487 10.9649 7.48904C11.1565 7.9932 11.379 8.42237 11.6899 8.9982C11.8374 9.27904 11.9107 9.27904 12.2657 9.08737C12.5901 8.92003 12.9263 8.77659 13.2715 8.6582C12.739 7.50487 12.2957 6.54237 12.074 5.72987C11.9484 5.20077 11.84 4.66771 11.749 4.13154C11.704 3.71737 11.6599 3.36237 11.5565 2.9782C11.4382 2.50487 11.2749 2.2832 10.8165 2.2832C10.3882 2.2832 9.87071 2.50487 9.87071 3.06654C9.87071 3.43654 9.97405 3.9832 10.0774 4.4257C10.2549 4.8557 10.2849 5.12154 10.5065 6.0532ZM4.26988 12.009C3.91155 12.1057 2.37321 12.6624 2.00238 12.8065C1.58321 12.969 1.28821 13.1165 1.49821 13.7415C1.66905 14.2474 1.95905 14.2715 2.22655 14.1715C2.60155 14.0332 4.26155 13.1632 4.57488 12.9699C4.85821 12.7949 4.94988 12.6615 4.81655 12.329C4.69571 12.0265 4.52155 11.9415 4.26988 12.009ZM3.20655 9.44737C3.41655 9.4407 3.57988 9.37237 3.62988 9.00904C3.66905 8.72987 3.62488 8.58404 3.30488 8.48487C2.99571 8.38987 1.05321 8.0732 0.634046 8.0332C0.272379 7.9982 0.0490459 8.0332 0.00654594 8.6057C-0.0342874 9.13904 0.114879 9.30237 0.483213 9.33904C0.906546 9.3807 2.76071 9.45904 3.20655 9.44737ZM1.01488 4.37904C1.40988 4.61487 2.92571 5.5332 3.43655 5.69487C3.69155 5.77487 3.82655 5.7032 3.96988 5.41904C4.11321 5.13487 4.15155 5.02154 3.87738 4.8007C3.59405 4.57237 2.10821 3.41654 1.68738 3.19737C1.32488 3.00904 1.07988 3.08154 0.859879 3.4982C0.610713 3.96987 0.656546 4.1632 1.01405 4.37904H1.01488Z" fill="white"/>
</svg>
