<svg width="12" height="14" viewBox="0 0 12 14" fill="none" xmlns="http://www.w3.org/2000/svg">
<path d="M11.5 0.5H2.5C1.83696 0.5 1.20107 0.763392 0.732233 1.23223C0.263392 1.70107 0 2.33696 0 3V7.5C0 7.89782 0.158035 8.27936 0.43934 8.56066C0.720644 8.84196 1.10218 9 1.5 9H4.5L4.00688 11.9169C4.00239 11.9444 4.00009 11.9722 4 12C4 12.5304 4.21071 13.0391 4.58579 13.4142C4.96086 13.7893 5.46957 14 6 14C6.53043 14 7.03914 13.7893 7.41421 13.4142C7.78929 13.0391 8 12.5304 8 12C7.99991 11.9722 7.99761 11.9444 7.99312 11.9169L7.5 9H10.5C10.8978 9 11.2794 8.84196 11.5607 8.56066C11.842 8.27936 12 7.89782 12 7.5V1C12 0.867392 11.9473 0.740215 11.8536 0.646447C11.7598 0.552678 11.6326 0.5 11.5 0.5ZM2.5 1.5H9V4C9 4.13261 9.05268 4.25979 9.14645 4.35355C9.24021 4.44732 9.36739 4.5 9.5 4.5C9.63261 4.5 9.75979 4.44732 9.85355 4.35355C9.94732 4.25979 10 4.13261 10 4V1.5H11V6H1V3C1 2.60218 1.15804 2.22064 1.43934 1.93934C1.72064 1.65804 2.10218 1.5 2.5 1.5Z" fill="white"/>
</svg>
