<svg width="20" height="20" viewBox="0 0 20 20" fill="none" xmlns="http://www.w3.org/2000/svg">
<path d="M10 0C15.5229 0 20.0008 4.47712 20.001 10C20.001 15.523 15.523 20.001 10 20.001C4.47712 20.0008 0 15.5229 0 10C0.000172653 4.47723 4.47723 0.000172657 10 0ZM10.002 1.91895C5.53912 1.91895 1.9209 5.53717 1.9209 10C1.92091 14.4628 5.53913 18.0811 10.002 18.0811C14.4646 18.0809 18.082 14.4627 18.082 10C18.082 5.53728 14.4646 1.91912 10.002 1.91895ZM12.8486 10.5771C13.0064 11.2652 13.0908 11.9807 13.0908 12.7187C13.0908 14.0798 12.8076 15.3723 12.2969 16.5391C11.5785 16.7912 10.8065 16.9297 10.002 16.9297C9.06878 16.9297 8.17876 16.7446 7.36621 16.4102C8.2654 13.7621 10.2799 11.6295 12.8486 10.5771ZM3.60938 7.31934C4.99413 7.9621 6.534 8.32129 8.16211 8.32129C9.39682 8.32126 10.5906 8.11111 11.6982 7.72461C12.0313 8.27231 12.3073 8.85597 12.5244 9.46875C9.64805 10.6094 7.37824 12.9509 6.33203 15.8779C4.37445 14.6532 3.0713 12.4793 3.07129 10C3.07129 9.0496 3.26315 8.14396 3.60938 7.31934ZM16.9277 9.87109C16.9285 9.91398 16.9316 9.95693 16.9316 10C16.9316 12.4266 15.6832 14.5599 13.7949 15.7979C14.0861 14.8216 14.2412 13.7871 14.2412 12.7187C14.2412 11.8526 14.1367 11.0127 13.9424 10.2061C14.7571 9.98205 15.6175 9.86231 16.5039 9.8623C16.6464 9.8623 16.7878 9.86548 16.9277 9.87109ZM15.3447 5.58594C16.0771 6.47143 16.5906 7.54272 16.8105 8.71777C16.708 8.71519 16.6057 8.71094 16.5039 8.71094C15.5063 8.71095 14.5358 8.8473 13.6152 9.10254C13.3915 8.46763 13.1106 7.85953 12.7744 7.28418C13.7161 6.84147 14.5806 6.2658 15.3447 5.58594ZM7.00391 3.74902C8.59114 4.38242 9.97435 5.42272 11.0137 6.7373C10.1138 7.0172 9.15397 7.17088 8.16211 7.1709C6.72513 7.1709 5.36741 6.8585 4.14355 6.29883C4.83707 5.20345 5.82751 4.3142 7.00391 3.74902ZM10.002 3.07031C11.7368 3.07039 13.3215 3.70909 14.5371 4.7627C13.823 5.39071 13.0152 5.91775 12.1357 6.3125C11.1974 5.03952 9.97986 3.97825 8.5752 3.2168C9.03553 3.12048 9.513 3.07031 10.002 3.07031Z" fill="white"/>
</svg>
