<svg width="8" height="5" viewBox="0 0 8 5" fill="none" xmlns="http://www.w3.org/2000/svg">
<path d="M2.86865 3.5353L2.06472 2.73137C1.20797 1.87462 0.779592 1.44624 0.750647 1.07846C0.725532 0.759341 0.854706 0.447486 1.09812 0.239594C1.37864 0 1.98446 0 3.19609 0L4.80394 0C6.01557 0 6.62139 0 6.90192 0.239594C7.14533 0.447486 7.2745 0.759341 7.24939 1.07846C7.22044 1.44624 6.79207 1.87462 5.93531 2.73137L5.13139 3.5353C4.73537 3.93131 4.53736 4.12932 4.30903 4.20351C4.10819 4.26877 3.89184 4.26877 3.691 4.20351C3.46267 4.12932 3.26466 3.93131 2.86865 3.5353Z" fill="white"/>
</svg>
