<svg width="106" height="40" viewBox="0 0 106 40" fill="none" xmlns="http://www.w3.org/2000/svg">
<path d="M25.2494 14.3879C24.0315 13.0878 22.5961 12.091 20.8563 11.3976C19.1164 10.7042 17.1156 10.3142 14.8538 10.3142C12.157 10.3142 9.72121 10.9642 7.5464 12.221C5.37158 13.5211 3.67523 15.2546 2.41384 17.4648C1.15244 19.675 0.5 22.2319 0.5 25.0488C0.5 27.8657 1.10895 30.2925 2.32684 32.5461C3.54474 34.7996 5.28459 36.5764 7.5029 37.9198C9.72121 39.2633 12.3745 39.9133 15.3757 39.9133C17.3331 39.9133 19.1164 39.61 20.7693 39.0466C22.4221 38.4832 23.814 37.6598 25.0319 36.6197C26.2498 35.5796 27.1197 34.3662 27.6852 32.9794L21.4217 30.0325C20.8563 30.9859 20.0733 31.766 19.1164 32.3294C18.116 32.8927 16.9416 33.1528 15.5497 33.1528C14.0273 33.1528 12.7225 32.8061 11.635 32.156C10.5476 31.4626 9.76471 30.5525 9.24275 29.3391C8.98177 28.7324 8.80779 28.039 8.7208 27.3023H28.6856C28.8161 26.9122 28.9031 26.4789 28.9901 25.9155C29.0771 25.3521 29.0771 24.8321 29.0771 24.2687C29.0771 22.2752 28.7726 20.455 28.1201 18.7649C27.5112 17.0748 26.5978 15.6013 25.3799 14.3012L25.2494 14.3879ZM11.3741 17.5948C12.331 16.9447 13.5054 16.5981 14.8538 16.5981C16.2022 16.5981 17.4201 16.9447 18.377 17.5948C19.3339 18.2882 19.9863 19.1983 20.3778 20.3684C20.5083 20.7584 20.5518 21.1918 20.5953 21.6251H8.89478C8.98177 21.2351 9.02527 20.8451 9.15576 20.4984C9.63422 19.1983 10.3737 18.2449 11.3306 17.5948H11.3741Z" fill="white"/>
<path d="M41.3865 0H33.5572V39.3499H41.3865V0Z" fill="white"/>
<path d="M68.0497 11.701C66.4404 10.7909 64.5265 10.3575 62.3952 10.3575C60.3944 10.3575 58.698 10.7476 57.2191 11.571C55.9578 12.2644 55.0878 13.3044 54.4354 14.6479V11.0076H47.128V39.3933H54.9573V22.7952C54.9573 21.6685 55.1748 20.7151 55.6098 19.935C56.0447 19.1549 56.6537 18.5049 57.4801 18.0715C58.2631 17.6381 59.1765 17.3781 60.1769 17.3781C61.1773 17.3781 62.1342 17.5948 62.9172 18.0715C63.7001 18.5482 64.309 19.1549 64.744 19.935C65.179 20.7151 65.3964 21.6685 65.3964 22.7952V39.3933H73.2258V21.1484C73.2258 18.9816 72.7908 17.1181 71.8774 15.5146C70.964 13.9112 69.7026 12.6544 68.0932 11.7443L68.0497 11.701Z" fill="white"/>
<path d="M105.5 10.9642H95.8438L86.1877 21.1918V0H78.3583V39.3499H86.1877V30.6826L89.3629 27.2589L96.5833 39.3499H105.457L95.1914 22.4052L105.5 10.9642Z" fill="white"/>
</svg>
