<svg width="16" height="16" viewBox="0 0 16 16" fill="none" xmlns="http://www.w3.org/2000/svg">
<path d="M14.209 12.4538C14.0258 12.4833 13.7841 12.4844 13.4258 12.4844L2.57487 12.4844C2.21613 12.4844 1.97432 12.4834 1.79102 12.4538L5.49805 8.7474L6.16406 9.41276C6.67103 9.91963 7.33663 10.1731 8.00065 10.1732C8.25432 10.1731 8.50875 10.1372 8.75391 10.0632C9.1505 9.94331 9.52379 9.72551 9.83659 9.41276L10.502 8.7474L14.209 12.4538Z" fill="white"/>
<path d="M4.73698 7.98568L1.02995 11.6934C1.00042 11.5101 1 11.2681 1 10.9095L1 5.09049C1 4.7163 1.00095 4.46926 1.03451 4.2832L4.73698 7.98568Z" fill="white"/>
<path d="M14.9655 4.2832C14.9991 4.46927 15.0007 4.71623 15.0007 5.09049L15.0007 10.9095C15.0007 11.2682 14.9996 11.51 14.9701 11.6934L11.2637 7.98568L14.9655 4.2832Z" fill="white"/>
<path d="M13.4258 3.51562C13.7995 3.51563 14.0465 3.51602 14.2324 3.54948L9.10352 8.67904C8.87489 8.90766 8.59346 9.05099 8.29883 9.10807C8.09715 9.14712 7.88885 9.14582 7.6875 9.10482C7.39842 9.04584 7.12185 8.90375 6.89714 8.67904L1.76758 3.54948C1.95361 3.51591 2.20071 3.51563 2.57487 3.51562L13.4258 3.51562Z" fill="white"/>
</svg>
