<svg width="20" height="20" viewBox="0 0 20 20" fill="none" xmlns="http://www.w3.org/2000/svg">
<path d="M9.2838 11.7143C8.9188 11.7143 8.7063 11.4693 8.7063 10.8327V8.58602L9.91964 8.67935L9.9813 8.10102L8.73464 8.16268V6.88768H8.36964C8.18964 7.88852 7.73714 8.25268 7.12964 8.31435V8.61768H7.8538L7.8538 11.1694C7.8538 11.866 8.3438 12.2285 8.94797 12.2285C9.43547 12.2285 9.94964 12.016 10.1296 11.5927L9.9488 11.3802C9.8588 11.5302 9.6138 11.7143 9.2838 11.7143ZM6.37214 11.0452C6.12714 11.6202 5.73297 11.6527 5.3388 11.6527H4.0638C3.64047 11.6527 3.4563 11.4977 3.4563 11.136L3.4563 9.25435C3.4563 9.25435 4.3663 9.25435 4.67047 9.28685C4.91297 9.31602 5.03547 9.37768 5.12547 9.68102L5.21547 10.1068H5.58047L5.54797 9.01602L5.60964 7.95102H5.24797L5.12547 8.43852C5.06464 8.77102 5.00297 8.80352 4.67047 8.86185C4.24714 8.89352 3.4563 8.89352 3.4563 8.89352L3.4563 6.64852C3.4563 6.55518 3.4563 6.52602 3.61047 6.52602L5.51964 6.52602C5.85464 6.52602 6.0363 6.79768 6.15547 7.34268L6.27797 7.76935H6.61047C6.64297 6.55518 6.67214 6.04102 6.67214 6.04102C6.67214 6.04102 5.85464 6.12852 5.37047 6.12852L2.94297 6.12852L1.66797 6.10268V6.43518L2.0913 6.52435C2.39714 6.58602 2.48714 6.64685 2.48714 6.91852C2.48714 6.91852 2.51964 7.73852 2.51964 9.10102C2.51964 10.4668 2.48714 11.2869 2.48714 11.2869C2.48714 11.5294 2.39714 11.6193 2.0913 11.681L1.66797 11.7752V12.1052L2.97214 12.076H5.15797C5.64214 12.076 6.79547 12.1052 6.79547 12.1052C6.8238 11.8044 6.97547 10.4685 7.00797 10.3168H6.7013L6.37214 11.0452ZM11.4055 8.86018C11.4055 8.46518 11.7696 8.31435 12.1346 8.31435C12.4346 8.31435 12.6788 8.43685 12.7421 8.58518L12.9546 9.19268L13.2555 9.16352C13.2555 8.86018 13.2871 8.46518 13.348 8.16268C13.0746 8.04018 12.5288 7.97852 12.1638 7.97852C11.3438 7.97852 10.708 8.34602 10.708 9.13435C10.708 10.5293 12.7413 10.226 12.7413 11.2585C12.7413 11.591 12.528 11.866 12.0113 11.866C11.5271 11.866 11.3138 11.621 11.2238 11.3785L10.9821 10.801H10.6746C10.708 11.1977 10.7363 11.591 10.6746 11.9527C10.6746 11.9527 11.3138 12.1977 11.9505 12.1977C12.8021 12.1977 13.4988 11.7752 13.4988 10.9835C13.4988 9.58852 11.4055 9.79935 11.4055 8.86018ZM16.713 8.07268V8.37602L16.9288 8.43768C17.1388 8.49602 17.2288 8.58602 17.2288 8.74018C17.2288 8.83018 17.2005 8.86018 17.168 8.98268C17.078 9.22518 16.4996 10.6518 16.1996 11.2885C15.8791 10.4757 15.5754 9.65638 15.2888 8.83102C15.2596 8.77018 15.2596 8.74102 15.2596 8.70935C15.2596 8.58602 15.3471 8.46602 15.5605 8.43768L15.8346 8.37602V8.07268L14.713 8.13352L13.7996 8.10102V8.40768L13.9555 8.46518C14.1646 8.52685 14.1946 8.55685 14.3463 8.89185C14.9238 10.1668 15.5605 11.8327 15.7763 12.3502C15.2896 13.1994 14.773 13.441 14.3788 13.441C14.1363 13.441 14.0463 13.3185 14.0163 13.1669L13.8946 12.531L13.5613 12.5602C13.5005 12.9577 13.4388 13.3802 13.3488 13.7127C13.588 13.8643 13.8621 13.9577 14.2263 13.9569C14.8021 13.9569 15.6221 13.8052 16.4121 12.0135L17.7463 8.89102C17.8671 8.64685 17.898 8.61685 18.2013 8.49435L18.3538 8.37435V8.07268L17.5663 8.10102L16.713 8.07268Z" fill="white"/>
</svg>
