<svg width="20" height="20" viewBox="0 0 20 20" fill="none" xmlns="http://www.w3.org/2000/svg">
<path fill-rule="evenodd" clip-rule="evenodd" d="M10.0004 0.416016C7.62639 0.417247 5.33025 1.25806 3.52253 2.78812C1.71482 4.31817 0.513395 6.43769 0.133096 8.76768C-0.247203 11.0977 0.218415 13.4862 1.4467 15.5062C2.67499 17.5261 4.58584 19.0458 6.83758 19.7935C7.33435 19.8857 7.52147 19.5778 7.52147 19.316C7.52147 19.0542 7.51153 18.2952 7.50822 17.4654C4.72631 18.0663 4.13846 16.2914 4.13846 16.2914C3.68475 15.1389 3.02901 14.8359 3.02901 14.8359C2.12157 14.2201 3.0969 14.2317 3.0969 14.2317C4.10204 14.3025 4.63027 15.2574 4.63027 15.2574C5.52115 16.7771 6.97005 16.3375 7.53969 16.0807C7.6291 15.4369 7.88909 14.9989 8.17556 14.7503C5.95334 14.5 3.61851 13.6472 3.61851 9.8372C3.60473 8.84911 3.97349 7.89356 4.64848 7.16825C4.54582 6.91798 4.20304 5.90704 4.74618 4.53387C4.74618 4.53387 5.58573 4.26714 7.49664 5.55305C9.1357 5.10737 10.865 5.10737 12.5041 5.55305C14.4133 4.26714 15.2512 4.53387 15.2512 4.53387C15.796 5.90375 15.4533 6.91469 15.3506 7.16825C16.0277 7.89367 16.3972 8.85089 16.3822 9.84049C16.3822 13.6587 14.0424 14.5 11.8169 14.7454C12.1746 15.0549 12.4942 15.6592 12.4942 16.5878C12.4942 17.9181 12.4826 18.9884 12.4826 19.316C12.4826 19.5811 12.663 19.8906 13.1698 19.7935C15.4218 19.0457 17.3328 17.5258 18.5611 15.5055C19.7893 13.4851 20.2547 11.0963 19.874 8.76606C19.4932 6.43585 18.2912 4.31631 16.4829 2.78652C14.6746 1.25673 12.3779 0.416467 10.0037 0.416016H10.0004Z" fill="white"/>
<path d="M3.78717 14.6927C3.76565 14.7421 3.68616 14.7569 3.62158 14.7223C3.557 14.6877 3.50898 14.6235 3.53217 14.5725C3.55535 14.5215 3.63318 14.5083 3.69776 14.5429C3.76234 14.5774 3.81201 14.6433 3.78717 14.6927Z" fill="white"/>
<path d="M4.19288 15.1422C4.15859 15.1593 4.11936 15.1641 4.0819 15.1557C4.04444 15.1473 4.01109 15.1262 3.98755 15.0961C3.92297 15.0269 3.90972 14.9314 3.9594 14.8886C4.00907 14.8458 4.0985 14.8656 4.16308 14.9347C4.22766 15.0039 4.24256 15.0994 4.19288 15.1422Z" fill="white"/>
<path d="M4.58701 15.7135C4.52574 15.7563 4.42142 15.7135 4.36346 15.6279C4.34743 15.6125 4.33469 15.5941 4.32598 15.5737C4.31728 15.5534 4.31279 15.5315 4.31279 15.5093C4.31279 15.4872 4.31728 15.4653 4.32598 15.4449C4.33469 15.4246 4.34743 15.4062 4.36346 15.3908C4.42473 15.3496 4.52906 15.3908 4.58701 15.4748C4.64497 15.5587 4.64663 15.6707 4.58701 15.7135Z" fill="white"/>
<path d="M5.12185 16.2667C5.06721 16.3276 4.95627 16.3112 4.86519 16.2288C4.77412 16.1465 4.75258 16.0346 4.80723 15.9753C4.86187 15.916 4.97282 15.9325 5.06721 16.0132C5.16159 16.0938 5.17981 16.2074 5.12185 16.2667Z" fill="white"/>
<path d="M5.87195 16.5894C5.84712 16.6668 5.73451 16.7014 5.62191 16.6685C5.50931 16.6355 5.43479 16.5433 5.45632 16.4643C5.47785 16.3853 5.59211 16.349 5.70636 16.3853C5.82062 16.4215 5.89348 16.5087 5.87195 16.5894Z" fill="white"/>
<path d="M6.69 16.6454C6.69 16.7261 6.59728 16.7952 6.47805 16.7969C6.35883 16.7985 6.26113 16.7327 6.26113 16.652C6.26113 16.5713 6.35385 16.5022 6.47308 16.5005C6.59231 16.4989 6.69 16.5631 6.69 16.6454Z" fill="white"/>
<path d="M7.45172 16.5186C7.46663 16.5993 7.38383 16.6833 7.2646 16.703C7.14538 16.7228 7.04106 16.675 7.02615 16.596C7.01125 16.517 7.09736 16.4314 7.21327 16.41C7.32919 16.3886 7.43682 16.4379 7.45172 16.5186Z" fill="white"/>
</svg>
