<svg width="24" height="24" viewBox="0 0 24 24" fill="none" xmlns="http://www.w3.org/2000/svg">
<path d="M15 9H15.009M13.8103 15.375L16.2188 12.9694C16.3594 12.8288 16.5501 12.7499 16.7489 12.7499C16.9477 12.7499 17.1384 12.8288 17.2791 12.9694L21 16.6931M3 15.8147L8.09437 10.7194C8.16403 10.6496 8.24675 10.5943 8.33779 10.5566C8.42884 10.5188 8.52644 10.4994 8.625 10.4994C8.72356 10.4994 8.82116 10.5188 8.91221 10.5566C9.00325 10.5943 9.08597 10.6496 9.15563 10.7194L17.9353 19.5M3.75 4.5L20.25 4.5C20.6642 4.5 21 4.83579 21 5.25L21 18.75C21 19.1642 20.6642 19.5 20.25 19.5L3.75 19.5C3.33579 19.5 3 19.1642 3 18.75L3 5.25C3 4.83579 3.33579 4.5 3.75 4.5Z" stroke="white" stroke-width="2" stroke-linecap="round" stroke-linejoin="round"/>
</svg>
