<svg width="14" height="14" viewBox="0 0 14 14" fill="none" xmlns="http://www.w3.org/2000/svg">
<path d="M6.83773 1.21726C8.64382 1.21726 8.85769 1.22518 9.56798 1.25686C10.2281 1.28591 10.5846 1.39681 10.8222 1.48923C11.1364 1.61069 11.3635 1.75855 11.5985 1.99356C11.8361 2.2312 11.9814 2.45564 12.1028 2.76986C12.1953 3.0075 12.3062 3.3666 12.3352 4.02408C12.3669 4.73701 12.3748 4.95088 12.3748 6.75433C12.3748 8.56041 12.3669 8.77429 12.3352 9.48458C12.3062 10.1447 12.1953 10.5012 12.1028 10.7388C11.9814 11.053 11.8335 11.2801 11.5985 11.5151C11.3609 11.7527 11.1364 11.898 10.8222 12.0194C10.5846 12.1118 10.2255 12.2227 9.56798 12.2518C8.85505 12.2835 8.64118 12.2914 6.83773 12.2914C5.03165 12.2914 4.81777 12.2835 4.10749 12.2518C3.44737 12.2227 3.0909 12.1118 2.85326 12.0194C2.53904 11.898 2.31196 11.7501 2.07696 11.5151C1.83932 11.2775 1.69409 11.053 1.57263 10.7388C1.48022 10.5012 1.36932 10.1421 1.34027 9.48458C1.30858 8.77165 1.30066 8.55777 1.30066 6.75433C1.30066 4.94824 1.30858 4.73437 1.34027 4.02408C1.36932 3.36396 1.48022 3.0075 1.57263 2.76986C1.69409 2.45564 1.84196 2.22856 2.07696 1.99356C2.3146 1.75591 2.53904 1.61069 2.85326 1.48923C3.0909 1.39681 3.45001 1.28591 4.10749 1.25686C4.81777 1.22518 5.03165 1.21726 6.83773 1.21726ZM6.83773 0C5.00261 0 4.77288 0.00792141 4.05204 0.0396071C3.33383 0.0712927 2.84006 0.187473 2.4123 0.353823C1.96606 0.528094 1.58848 0.757815 1.21353 1.1354C0.83594 1.51035 0.606219 1.88794 0.431948 2.33154C0.265598 2.76193 0.149418 3.25306 0.117732 3.97127C0.0860464 4.69476 0.078125 4.92448 0.078125 6.75961C0.078125 8.59474 0.0860464 8.82446 0.117732 9.54531C0.149418 10.2635 0.265598 10.7573 0.431948 11.185C0.606219 11.6313 0.83594 12.0089 1.21353 12.3838C1.58848 12.7588 1.96606 12.9911 2.40966 13.1628C2.84006 13.3291 3.33119 13.4453 4.04939 13.477C4.77024 13.5087 4.99996 13.5166 6.83509 13.5166C8.67022 13.5166 8.89994 13.5087 9.62079 13.477C10.339 13.4453 10.8328 13.3291 11.2605 13.1628C11.7041 12.9911 12.0817 12.7588 12.4567 12.3838C12.8316 12.0089 13.064 11.6313 13.2356 11.1877C13.4019 10.7573 13.5181 10.2662 13.5498 9.54795C13.5815 8.8271 13.5894 8.59738 13.5894 6.76225C13.5894 4.92712 13.5815 4.6974 13.5498 3.97655C13.5181 3.25834 13.4019 2.76457 13.2356 2.33682C13.0692 1.88794 12.8395 1.51035 12.4619 1.1354C12.087 0.760456 11.7094 0.528094 11.2658 0.356464C10.8354 0.190114 10.3443 0.0739332 9.62607 0.0422476C8.90258 0.00792142 8.67286 0 6.83773 0Z" fill="white"/>
<path d="M6.83773 3.28739C4.92075 3.28739 3.36551 4.84263 3.36551 6.75961C3.36551 8.67659 4.92075 10.2318 6.83773 10.2318C8.75472 10.2318 10.31 8.67659 10.31 6.75961C10.31 4.84263 8.75472 3.28739 6.83773 3.28739ZM6.83773 9.01193C5.59407 9.01193 4.58541 8.00327 4.58541 6.75961C4.58541 5.51595 5.59407 4.50729 6.83773 4.50729C8.0814 4.50729 9.09006 5.51595 9.09006 6.75961C9.09006 8.00327 8.0814 9.01193 6.83773 9.01193Z" fill="white"/>
<path d="M11.2579 3.15006C11.2579 3.59894 10.8935 3.96068 10.4473 3.96068C9.99838 3.96068 9.63663 3.5963 9.63663 3.15006C9.63663 2.70118 10.001 2.33943 10.4473 2.33943C10.8935 2.33943 11.2579 2.70382 11.2579 3.15006Z" fill="white"/>
</svg>
