<svg width="20" height="20" viewBox="0 0 20 20" fill="none" xmlns="http://www.w3.org/2000/svg">
<path d="M2.5 1.66602L9.16667 1.66602V3.33268L10.8333 3.33268V1.66602L17.5 1.66602V8.33268L15.8333 8.33268V11.666H17.5L17.5 18.3327L10.8333 18.3327L10.8333 16.666H9.16667V18.3327H2.5L2.5 1.66602ZM10.8333 14.9993H12.5V16.666H15.8333V13.3327H14.1667V11.666H12.5V8.33268H14.1667L14.1667 6.66602H15.8333V3.33268L12.5 3.33268V4.99935H10.8333V6.66602L7.5 6.66602L7.5 3.33268L4.16667 3.33268L4.16667 16.666H7.5L7.5 13.3327L10.8333 13.3327V14.9993Z" fill="white"/>
</svg>
