<svg width="14" height="14" viewBox="0 0 14 14" fill="none" xmlns="http://www.w3.org/2000/svg">
<path d="M3.70679 12.3949H1.32665L1.32665 5.27919H3.70679L3.70679 12.3949ZM2.51672 3.89557C2.24394 3.8878 1.97951 3.8001 1.75646 3.64342C1.53341 3.48674 1.36165 3.26803 1.26262 3.01462C1.16359 2.76122 1.14169 2.48435 1.19966 2.21861C1.25763 1.95287 1.39289 1.71004 1.58855 1.52048C1.78421 1.33091 2.03159 1.203 2.29978 1.15274C2.56797 1.10248 2.84507 1.13209 3.09647 1.23788C3.34787 1.34366 3.56241 1.52093 3.71329 1.74753C3.86417 1.97413 3.94469 2.24001 3.9448 2.51196C3.93854 2.88383 3.78481 3.23812 3.51721 3.49738C3.24961 3.75664 2.88991 3.8998 2.51672 3.89557ZM12.434 12.3949H10.0538V8.6473C10.0538 7.52459 9.57781 7.12137 8.95897 7.12137C8.77753 7.13341 8.60027 7.18105 8.43736 7.26156C8.27445 7.34206 8.12911 7.45385 8.00968 7.5905C7.89025 7.72715 7.79909 7.88596 7.74143 8.05782C7.68377 8.22968 7.66075 8.4112 7.67369 8.59195C7.66976 8.62875 7.66976 8.66585 7.67369 8.70264L7.67369 12.3949L5.29355 12.3949L5.29355 5.27919H7.59436V6.30701C7.82644 5.95518 8.1453 5.66863 8.52038 5.47482C8.89546 5.281 9.3142 5.18642 9.73649 5.20012C10.9662 5.20012 12.4022 5.88007 12.4022 8.09385L12.434 12.3949Z" fill="white"/>
</svg>
