<svg width="20" height="20" viewBox="0 0 20 20" fill="none" xmlns="http://www.w3.org/2000/svg">
<path d="M11.2812 9.85772C11.2812 13 8.75579 15.5473 5.6407 15.5473C2.52561 15.5473 0 12.9994 0 9.85772C0 6.71603 2.52542 4.16797 5.6407 4.16797C8.75598 4.16797 11.2812 6.71545 11.2812 9.85772Z" fill="white"/>
<path d="M17.469 9.85772C17.469 12.8155 16.2063 15.2142 14.6487 15.2142C13.091 15.2142 11.8283 12.8155 11.8283 9.85772C11.8283 6.89996 13.0908 4.50126 14.6485 4.50126C16.2061 4.50126 17.469 6.89919 17.469 9.85772Z" fill="white"/>
<path d="M20 9.85772C20 12.5071 19.556 14.6563 19.0081 14.6563C18.4602 14.6563 18.0163 12.5077 18.0163 9.85772C18.0163 7.20771 18.4604 5.05917 19.0081 5.05917C19.5558 5.05917 20 7.20752 20 9.85772Z" fill="white"/>
</svg>
