<svg width="20" height="20" viewBox="0 0 20 20" fill="none" xmlns="http://www.w3.org/2000/svg">
<path d="M20 3.33594L16.6542 3.33594C13.7792 3.33594 12.2375 3.5001 11.0308 4.96677C9.96924 4.04637 8.64388 3.48509 7.24414 3.36315C5.84441 3.24121 4.44194 3.56485 3.23719 4.28782C2.03243 5.01078 1.08703 6.09608 0.536111 7.3886C-0.0148128 8.68112 -0.143068 10.1147 0.169673 11.4845C0.482415 12.8543 1.22015 14.0902 2.27744 15.0155C3.33473 15.9409 4.65747 16.5083 6.05662 16.6368C7.45578 16.7652 8.85973 16.4481 10.0678 15.7308C11.276 15.0134 12.2264 13.9325 12.7833 12.6426C15.435 12.4501 17.275 10.8643 17.8542 8.33177C17.8542 8.33177 15.855 8.81927 14.1625 8.33177C17.5108 7.68427 19.44 5.80094 20 3.33594ZM4.675 9.99927C4.67368 9.64199 4.76845 9.29093 4.94938 8.98285C5.13032 8.67477 5.39076 8.42101 5.70344 8.24815C6.01612 8.07528 6.36952 7.98967 6.72665 8.00027C7.08377 8.01088 7.43147 8.11732 7.73334 8.30844C7.82204 7.71339 8.12473 7.17112 8.58466 6.7833C9.04459 6.39547 9.63019 6.18871 10.2317 6.20177H10.2383C9.47167 7.68344 9.06584 8.9951 8.57334 10.5876C8.43282 11.0438 8.13329 11.4344 7.72919 11.6884C7.3251 11.9424 6.84326 12.043 6.37129 11.9719C5.89931 11.9007 5.46852 11.6626 5.15724 11.3008C4.84595 10.9389 4.67484 10.4774 4.675 10.0001V9.99927ZM6.66334 3.33594C5.34545 3.33594 4.05717 3.72674 2.96139 4.45891C1.86561 5.19109 1.01155 6.23176 0.507219 7.44932C0.0028871 8.66689 -0.129069 10.0067 0.128037 11.2992C0.385143 12.5918 1.01976 13.7791 1.95165 14.711C2.88353 15.6428 4.07082 16.2775 5.36338 16.5346C6.65594 16.7917 7.99572 16.6597 9.21328 16.1554C10.4308 15.6511 11.4715 14.797 12.2037 13.7012C12.9359 12.6054 13.3267 11.3172 13.3267 9.99927C13.3267 8.23205 12.6246 6.5372 11.375 5.28758C10.1254 4.03797 8.43056 3.33594 6.66334 3.33594ZM6.66334 11.9976C6.26787 11.9976 5.88128 11.8803 5.55249 11.6606C5.22369 11.4408 4.96745 11.1285 4.81619 10.7631C4.66493 10.3977 4.62543 9.99565 4.70271 9.60781C4.77998 9.21996 4.97055 8.86375 5.2503 8.58422C5.53006 8.3047 5.88643 8.11443 6.27434 8.03748C6.66225 7.96053 7.06427 8.00036 7.42954 8.15193C7.79481 8.3035 8.10692 8.55999 8.32639 8.88897C8.54586 9.21795 8.66283 9.60464 8.6625 10.0001C8.66272 10.2627 8.61116 10.5227 8.51076 10.7653C8.41036 11.0079 8.26309 11.2283 8.0774 11.4139C7.89171 11.5995 7.67123 11.7467 7.42858 11.847C7.18594 11.9473 6.92589 11.9979 6.66334 11.9976Z" fill="white"/>
</svg>
