<svg width="20" height="20" viewBox="0 0 20 20" fill="none" xmlns="http://www.w3.org/2000/svg">
<path d="M5.53153 18.0612L5.19103 18.7294L5.53153 18.0612ZM4.43899 16.9686L3.77073 17.3091L4.43899 16.9686ZM15.5607 16.9686L16.2289 17.3091L15.5607 16.9686ZM14.4681 18.0612L14.8086 18.7294L14.4681 18.0612ZM14.4681 1.93948L14.8086 1.27122L14.4681 1.93948ZM15.5607 3.03202L16.2289 2.69152L15.5607 3.03202ZM5.53153 1.93948L5.19103 1.27122H5.19103L5.53153 1.93948ZM4.43899 3.03202L3.77073 2.69152L4.43899 3.03202ZM8.33317 15.0837C7.91896 15.0837 7.58317 15.4194 7.58317 15.8337C7.58317 16.2479 7.91896 16.5837 8.33317 16.5837V15.8337L8.33317 15.0837ZM11.6665 16.5837C12.0807 16.5837 12.4165 16.2479 12.4165 15.8337C12.4165 15.4194 12.0807 15.0837 11.6665 15.0837L11.6665 15.8337V16.5837ZM10.7498 4.15951C10.7498 3.74529 10.4141 3.40951 9.99984 3.40951C9.58562 3.40951 9.24984 3.74529 9.24984 4.15951H9.99984H10.7498ZM9.24984 4.16699C9.24984 4.58121 9.58562 4.91699 9.99984 4.91699C10.4141 4.91699 10.7498 4.58121 10.7498 4.16699H9.99984H9.24984ZM8.1665 1.66699V2.41699L11.8332 2.41699V1.66699V0.916992L8.1665 0.916992V1.66699ZM15.8332 5.66699H15.0832L15.0832 14.3337H15.8332H16.5832V5.66699H15.8332ZM11.8332 18.3337V17.5837H8.1665V18.3337V19.0837H11.8332V18.3337ZM4.1665 14.3337H4.9165L4.9165 5.66699H4.1665H3.4165L3.4165 14.3337H4.1665ZM8.1665 18.3337V17.5837C7.45406 17.5837 6.96484 17.5831 6.58558 17.5521C6.21508 17.5218 6.01606 17.4663 5.87202 17.3929L5.53153 18.0612L5.19103 18.7294C5.58178 18.9285 6.00017 19.0093 6.46343 19.0471C6.91794 19.0842 7.47881 19.0837 8.1665 19.0837V18.3337ZM4.1665 14.3337H3.4165C3.4165 15.0213 3.41592 15.5822 3.45306 16.0367C3.49091 16.5 3.57164 16.9184 3.77073 17.3091L4.43899 16.9686L5.10724 16.6281C5.03385 16.4841 4.97834 16.2851 4.94807 15.9146C4.91709 15.5353 4.9165 15.0461 4.9165 14.3337H4.1665ZM5.53153 18.0612L5.87202 17.3929C5.54274 17.2251 5.27502 16.9574 5.10724 16.6281L4.43899 16.9686L3.77073 17.3091C4.08232 17.9207 4.57951 18.4178 5.19103 18.7294L5.53153 18.0612ZM15.8332 14.3337H15.0832C15.0832 15.0461 15.0826 15.5353 15.0516 15.9146C15.0213 16.2851 14.9658 16.4841 14.8924 16.6281L15.5607 16.9686L16.2289 17.3091C16.428 16.9184 16.5088 16.5 16.5466 16.0367C16.5838 15.5822 16.5832 15.0213 16.5832 14.3337H15.8332ZM11.8332 18.3337V19.0837C12.5209 19.0837 13.0817 19.0842 13.5362 19.0471C13.9995 19.0093 14.4179 18.9285 14.8086 18.7294L14.4681 18.0612L14.1277 17.3929C13.9836 17.4663 13.7846 17.5218 13.4141 17.5521C13.0348 17.5831 12.5456 17.5837 11.8332 17.5837V18.3337ZM15.5607 16.9686L14.8924 16.6281C14.7247 16.9574 14.4569 17.2251 14.1277 17.3929L14.4681 18.0612L14.8086 18.7294C15.4202 18.4178 15.9174 17.9207 16.2289 17.3091L15.5607 16.9686ZM11.8332 1.66699V2.41699C12.5456 2.41699 13.0348 2.41758 13.4141 2.44856C13.7846 2.47883 13.9836 2.53434 14.1277 2.60773L14.4681 1.93948L14.8086 1.27122C14.4179 1.07213 13.9995 0.991393 13.5362 0.953543C13.0817 0.916409 12.5209 0.916992 11.8332 0.916992V1.66699ZM15.8332 5.66699H16.5832C16.5832 4.9793 16.5838 4.41843 16.5466 3.96392C16.5088 3.50066 16.428 3.08226 16.2289 2.69152L15.5607 3.03202L14.8924 3.37251C14.9658 3.51655 15.0213 3.71557 15.0516 4.08607C15.0826 4.46533 15.0832 4.95455 15.0832 5.66699H15.8332ZM14.4681 1.93948L14.1277 2.60773C14.4569 2.77551 14.7247 3.04322 14.8924 3.37251L15.5607 3.03202L16.2289 2.69152C15.9174 2.08 15.4202 1.58281 14.8086 1.27122L14.4681 1.93948ZM8.1665 1.66699V0.916992C7.47881 0.916992 6.91794 0.916409 6.46343 0.953543C6.00017 0.991393 5.58178 1.07213 5.19103 1.27122L5.53153 1.93948L5.87202 2.60773C6.01606 2.53434 6.21508 2.47883 6.58558 2.44856C6.96484 2.41758 7.45406 2.41699 8.1665 2.41699V1.66699ZM4.1665 5.66699H4.9165C4.9165 4.95455 4.91709 4.46533 4.94807 4.08607C4.97834 3.71557 5.03385 3.51655 5.10724 3.37251L4.43899 3.03202L3.77073 2.69152C3.57164 3.08226 3.49091 3.50066 3.45306 3.96392C3.41592 4.41843 3.4165 4.9793 3.4165 5.66699H4.1665ZM5.53153 1.93948L5.19103 1.27122C4.57951 1.58281 4.08232 2.08 3.77073 2.69152L4.43899 3.03202L5.10724 3.37251C5.27502 3.04323 5.54274 2.77551 5.87202 2.60773L5.53153 1.93948ZM8.33317 15.8337V16.5837H11.6665V15.8337L11.6665 15.0837L8.33317 15.0837L8.33317 15.8337ZM9.99984 4.15951H9.24984V4.16699H9.99984H10.7498V4.15951H9.99984Z" fill="white"/>
</svg>
