<svg width="20" height="20" viewBox="0 0 20 20" fill="none" xmlns="http://www.w3.org/2000/svg">
<path fill-rule="evenodd" clip-rule="evenodd" d="M18.1475 5.94869C18.095 3.08536 15.725 0.782023 12.8509 0.832857C9.95837 0.832857 7.62337 3.18952 7.62337 6.06952L7.62337 14.3087H9.55754L9.55754 6.07036C9.55754 5.63787 9.64273 5.20962 9.80823 4.81005C9.97374 4.41049 10.2163 4.04743 10.5221 3.74162C10.828 3.4358 11.191 3.19322 11.5906 3.02771C11.9901 2.86221 12.4184 2.77702 12.8509 2.77702C13.2834 2.77702 13.7116 2.86221 14.1112 3.02771C14.5107 3.19322 14.8738 3.4358 15.1796 3.74162C15.4854 4.04743 15.728 4.41049 15.8935 4.81005C16.059 5.20962 16.1442 5.63787 16.1442 6.07036C16.1447 6.91197 15.8241 7.72207 15.2477 8.33533C14.6713 8.94859 13.8826 9.31878 13.0425 9.37036V11.307C13.7299 11.2915 14.4074 11.1404 15.0363 10.8625C15.6652 10.5846 16.233 10.1853 16.7073 9.68749C17.1815 9.1897 17.5529 8.60321 17.8 7.96163C18.0472 7.32005 18.1653 6.636 18.1475 5.94869ZM12.3109 5.68619H10.3759L10.3759 13.9262C10.3759 14.7996 10.0289 15.6373 9.41128 16.2549C8.79366 16.8725 7.95599 17.2195 7.08254 17.2195C6.20909 17.2195 5.37142 16.8725 4.7538 16.2549C4.13618 15.6373 3.78921 14.7996 3.78921 13.9262C3.78869 13.0846 4.10934 12.2745 4.68574 11.6612C5.26214 11.048 6.05084 10.6778 6.89087 10.6262L6.89087 8.68869C3.99921 8.79369 1.75087 11.2204 1.85504 14.1179C1.87868 14.8052 2.03772 15.4812 2.32304 16.107C2.60836 16.7328 3.01435 17.2962 3.51776 17.7649C4.02117 18.2335 4.6121 18.5982 5.2567 18.8381C5.9013 19.078 6.58689 19.1884 7.27421 19.1629C10.0792 19.0579 12.31 16.7362 12.31 13.9262L12.3109 5.68619Z" fill="white"/>
</svg>
