<svg width="20" height="20" viewBox="0 0 20 20" fill="none" xmlns="http://www.w3.org/2000/svg">
<path d="M12.1167 13.4033C12.222 13.2981 12.398 13.2981 12.5033 13.4033C12.585 13.5202 12.5847 13.6838 12.4797 13.7891C11.7662 14.5025 10.4091 14.55 10.0114 14.55C9.61333 14.5499 8.24552 14.4906 7.54395 13.7891C7.43884 13.6838 7.43873 13.5085 7.54395 13.4033C7.64917 13.2982 7.82445 13.2983 7.92969 13.4033C8.37413 13.8478 9.33354 14.012 10.0236 14.012C10.7136 14.012 11.6606 13.8477 12.1167 13.4033Z" fill="white"/>
<path d="M7.70752 10C8.2806 10 8.74834 10.4678 8.74837 11.0409C8.74837 11.614 8.28062 12.0817 7.70752 12.0817C7.13446 12.0817 6.66667 11.6139 6.66667 11.0409C6.6667 10.4678 7.13448 10 7.70752 10Z" fill="white"/>
<path d="M12.2925 10C12.8655 10 13.3333 10.4678 13.3333 11.0409C13.3333 11.6139 12.8655 12.0817 12.2925 12.0817C11.7194 12.0817 11.2516 11.614 11.2516 11.0409C11.2517 10.4678 11.7194 10 12.2925 10Z" fill="white"/>
<path fill-rule="evenodd" clip-rule="evenodd" d="M10 0C15.5228 4.29505e-07 20 4.47715 20 10C20 15.5228 15.5228 20 10 20C4.47715 20 4.29518e-07 15.5228 0 10C0 4.47715 4.47715 0 10 0ZM14.1756 3.95345C13.7663 3.95345 13.4149 4.18692 13.2511 4.53776L10.8301 4.02344C10.76 4.01183 10.6899 4.0234 10.6315 4.05843C10.5731 4.09351 10.5377 4.15188 10.5143 4.22201L9.77783 7.70752C8.22228 7.7543 6.83023 8.21091 5.82438 8.94775C5.56707 8.70214 5.20449 8.5376 4.81852 8.5376C4.01159 8.5377 3.35693 9.19305 3.35693 10C3.35694 10.5964 3.70755 11.099 4.22201 11.333C4.19861 11.4734 4.18701 11.6261 4.18701 11.7782C4.18732 14.0236 6.79572 15.8366 10.0236 15.8366C13.2514 15.8365 15.8591 14.0235 15.8594 11.7782C15.8594 11.6262 15.8478 11.4855 15.8244 11.3452C16.3039 11.1113 16.6667 10.5965 16.6667 10C16.6667 9.19311 16.0119 8.53781 15.2051 8.5376C14.8074 8.5376 14.4565 8.69044 14.1992 8.94775C13.2051 8.23434 11.8247 7.76604 10.3044 7.70752L10.9709 4.58496L13.1348 5.04069C13.1582 5.5904 13.6142 6.03516 14.1756 6.03516C14.7486 6.03506 15.2164 5.56727 15.2165 4.9943C15.2165 4.42126 14.7486 3.95355 14.1756 3.95345Z" fill="white"/>
</svg>
