<svg width="20" height="20" viewBox="0 0 20 20" fill="none" xmlns="http://www.w3.org/2000/svg">
<path d="M9.99997 0.144531C11.1502 0.144542 12.2055 0.414545 13.136 0.946126C13.6496 1.23569 14.1121 1.60798 14.5048 2.04801C15.118 2.75033 15.7061 3.63123 15.8512 5.31136C15.8921 5.78921 15.9023 6.27473 15.8952 6.7347C15.9365 6.72398 15.9789 6.71459 16.0213 6.7054C16.18 6.67127 16.342 6.65398 16.5043 6.65413C17.2738 6.65413 17.9089 7.07167 18.1644 7.74422C18.255 7.97803 18.2941 8.22879 18.2792 8.47908C18.2643 8.7294 18.1958 8.97381 18.0782 9.19523C17.9095 9.51566 17.6395 9.80226 17.2538 10.0721C17.1511 10.1452 16.9916 10.2486 16.7903 10.3789C16.6774 10.452 16.511 10.5602 16.3497 10.667C16.3014 10.6999 16.2605 10.7428 16.2296 10.7923C16.1985 10.8567 16.1964 10.9273 16.2398 11.0515C16.3445 11.2838 16.4696 11.5062 16.6141 11.716C17.1231 12.4612 17.857 13.0902 18.7968 13.5885C18.8882 13.636 18.9803 13.6808 19.0702 13.7273C19.1146 13.7477 19.1666 13.7743 19.2232 13.8075C19.5246 13.9751 19.7893 14.1776 19.9284 14.5557C20.0842 14.979 19.9887 15.4587 19.6085 15.8656L19.6036 15.8717C19.4502 16.0415 19.2686 16.1838 19.0669 16.292C18.6669 16.5117 18.2413 16.6813 17.7999 16.797C17.7153 16.8196 17.6351 16.8561 17.5626 16.9052C17.4298 17.0228 17.4332 17.191 17.2916 17.4317C17.187 17.6142 17.0434 17.7712 16.8709 17.8915C16.458 18.1767 15.9937 18.1949 15.5021 18.2138C15.0581 18.2307 14.5547 18.2495 13.9799 18.4396C13.7484 18.5163 13.5027 18.6673 13.2182 18.842C12.5247 19.2668 11.5756 19.8487 9.99875 19.8487C8.422 19.8487 7.47983 19.2697 6.79155 18.8465C6.50489 18.6686 6.25738 18.5163 6.01926 18.4376C5.4444 18.248 4.94108 18.2286 4.49704 18.2117C4.00546 18.1928 3.54151 18.1747 3.12863 17.8895C2.98296 17.7883 2.85749 17.6609 2.75876 17.5135C2.56202 17.2283 2.58295 17.0333 2.43527 16.904C2.35808 16.8524 2.27248 16.8145 2.18259 16.7913C1.74702 16.676 1.32703 16.5078 0.932178 16.2908C0.742472 16.1898 0.570188 16.059 0.421518 15.9038C0.0163634 15.4878 -0.0881465 14.9941 0.0711757 14.5602C0.282711 13.9852 0.783596 13.8144 1.26543 13.5588C2.175 13.0646 2.88727 12.4468 3.38498 11.7184C3.52684 11.5129 3.65039 11.2952 3.75363 11.0678C3.80213 10.935 3.80097 10.8629 3.76828 10.796C3.73324 10.7413 3.68687 10.6949 3.63237 10.6597C3.47655 10.5564 3.31763 10.4531 3.20879 10.3826C3.00746 10.2507 2.84753 10.1473 2.74533 10.0758C2.35953 9.80588 2.08968 9.51897 1.92054 9.19849C1.80316 8.9767 1.73489 8.73205 1.72035 8.48153C1.70583 8.23108 1.74542 7.98048 1.83631 7.74666C2.09077 7.07403 2.72687 6.65621 3.49688 6.65617C3.6592 6.65601 3.82117 6.6733 3.97987 6.70744C4.02228 6.71664 4.06421 6.72641 4.1056 6.73714C4.09896 6.27967 4.10907 5.79132 4.14995 5.31339C4.29507 3.63479 4.8832 2.75236 5.49639 2.05005C5.88941 1.60876 6.35305 1.2358 6.86805 0.946126C7.79958 0.414549 8.84974 0.144531 9.99997 0.144531ZM9.99793 1.26839C7.75772 1.26839 6.58594 2.50615 6.33623 2.79224C5.81707 3.38669 5.37986 4.05901 5.26283 5.41553C5.17749 6.40153 5.25434 7.45682 5.28602 7.99813C5.29619 8.16766 5.24406 8.24224 5.096 8.24227C5.06156 8.24168 5.02723 8.23699 4.99387 8.22843C4.71642 8.16148 4.23602 7.91342 3.74142 7.80607C3.6608 7.78799 3.57828 7.77907 3.49566 7.77881C3.23406 7.77881 2.98468 7.87939 2.88246 8.14665C2.73632 8.53304 2.93436 8.84743 3.38498 9.16227C3.65734 9.35242 4.63914 9.96042 4.8604 10.1649C5.08919 10.3764 5.05949 10.54 5.03293 10.748C5.01083 10.9203 4.51654 13.2353 1.42046 14.7348C1.23906 14.8227 0.93037 15.0088 1.47458 15.3093C2.32893 15.779 2.8973 15.7286 3.33981 16.0133C3.71466 16.2551 3.49352 16.7765 3.76584 16.9646C4.10165 17.196 5.09468 16.948 6.37204 17.3707C7.44505 17.7244 8.10282 18.7265 10.0016 18.7265C11.9003 18.7264 12.5739 17.7226 13.6295 17.3735C14.9096 16.9508 15.9005 17.1986 16.2357 16.967C16.5084 16.7789 16.2862 16.2574 16.6618 16.0157C17.1038 15.731 17.6721 15.7816 18.527 15.3093C19.071 15.0063 18.7624 14.8202 18.5795 14.7287C15.4827 13.2317 14.9887 10.9167 14.9666 10.7419C14.94 10.5338 14.9101 10.37 15.1395 10.1584C15.361 9.9533 16.3421 9.34635 16.6146 9.15617C17.0658 8.8413 17.2632 8.52696 17.1171 8.14054C17.0149 7.87476 16.767 7.77272 16.5039 7.7727C16.4212 7.77296 16.3388 7.78189 16.2581 7.79997C15.7636 7.90729 15.2833 8.15531 15.0053 8.22233C14.9719 8.23095 14.9372 8.23561 14.9027 8.23616C14.7547 8.23612 14.7009 8.16994 14.7127 7.99162C14.7475 7.45077 14.8212 6.39531 14.7359 5.40942C14.6199 4.05289 14.1826 3.38059 13.6629 2.78613C13.4135 2.50143 12.2386 1.26842 9.99793 1.26839Z" fill="white"/>
</svg>
