<svg width="20" height="20" viewBox="0 0 20 20" fill="none" xmlns="http://www.w3.org/2000/svg">
<path d="M19.1642 11.6787C19.125 13.0712 17.9335 14.1355 16.5673 14.1355H10.3194C10.0328 14.1333 9.80202 13.8967 9.80311 13.6063L9.80311 6.79291C9.79118 6.5511 9.929 6.32731 10.1486 6.23193C10.1486 6.23193 10.7218 5.83401 11.9309 5.83401C12.6736 5.83136 13.4031 6.03353 14.041 6.41892C15.0459 7.0149 15.758 8.01081 16.004 9.16418C16.2195 9.10087 16.443 9.06939 16.6674 9.07068C17.3429 9.07092 17.9896 9.34831 18.46 9.83964C18.9303 10.331 19.1844 10.9944 19.1642 11.6787ZM9.02187 7.22658C9.21031 9.53618 9.34771 11.6429 9.02187 13.9485C9.02187 14.0617 8.93135 14.1534 8.81969 14.1534C8.70803 14.1534 8.61751 14.0617 8.61751 13.9485C8.31522 11.6648 8.4487 9.51629 8.61751 7.22658C8.61751 7.11342 8.70803 7.02169 8.81969 7.02169C8.93135 7.02169 9.02187 7.11342 9.02187 7.22658ZM7.76167 8.02232C7.97956 10.0833 8.04433 11.8876 7.75775 13.9565C7.74336 14.0628 7.65368 14.1421 7.54772 14.1421C7.44176 14.1421 7.35207 14.0628 7.33768 13.9565C7.08447 11.9174 7.14139 10.0653 7.33768 8.02232C7.33768 7.90366 7.4326 7.80746 7.54968 7.80746C7.66676 7.80746 7.76167 7.90366 7.76167 8.02232ZM6.49167 7.82338C6.69778 9.93604 6.79003 11.8319 6.49167 13.9505C6.49167 14.0642 6.40071 14.1564 6.28851 14.1564C6.1763 14.1564 6.08534 14.0642 6.08534 13.9505C5.79483 11.8657 5.88905 9.91217 6.08534 7.82338C6.08534 7.70967 6.1763 7.61748 6.28851 7.61748C6.40071 7.61748 6.49167 7.70967 6.49167 7.82338ZM5.23344 8.42017C5.48175 10.2585 5.47977 12.1227 5.22755 13.9604C5.21716 14.0685 5.12756 14.1508 5.02046 14.1508C4.91337 14.1508 4.82377 14.0685 4.81338 13.9604C4.5798 12.1213 4.5798 10.2593 4.81338 8.42017C4.81338 8.30262 4.90741 8.20732 5.02341 8.20732C5.13941 8.20732 5.23344 8.30262 5.23344 8.42017ZM3.95754 9.79082C4.27946 11.237 4.13224 12.5042 3.93595 13.9684C3.93595 14.0783 3.84807 14.1673 3.73966 14.1673C3.63125 14.1673 3.54337 14.0783 3.54337 13.9684C3.38241 12.5281 3.23912 11.2172 3.54337 9.79082C3.55376 9.68279 3.64337 9.60041 3.75046 9.60041C3.85756 9.60041 3.94715 9.68279 3.95754 9.79082ZM2.69343 9.57995C2.98983 11.0501 2.89169 12.2993 2.68558 13.7754C2.66595 13.9923 2.29299 13.9942 2.27337 13.7754C2.08689 12.3192 2.00837 11.0302 2.26552 9.57995C2.28005 9.47147 2.37145 9.39057 2.47947 9.39057C2.58749 9.39057 2.6789 9.47147 2.69343 9.57995ZM1.4195 10.2862C1.72571 11.2689 1.61579 12.0626 1.39987 13.0553C1.39987 13.1652 1.31198 13.2542 1.20358 13.2542C1.09517 13.2542 1.00728 13.1652 1.00728 13.0553C0.822769 12.0765 0.736401 11.2629 0.989617 10.2862C1.00022 10.1739 1.09328 10.0882 1.20456 10.0882C1.31584 10.0882 1.4089 10.1739 1.4195 10.2862Z" fill="white"/>
</svg>
