<svg width="20" height="20" viewBox="0 0 20 20" fill="none" xmlns="http://www.w3.org/2000/svg">
<path d="M9.96582 1.66602C14.5487 1.66616 18.2627 5.38187 18.2627 9.96387C18.2625 14.5462 14.5485 18.2606 9.96582 18.2607C5.38357 18.2607 1.66821 14.5463 1.66797 9.96387C1.66797 5.38147 5.38342 1.66602 9.96582 1.66602ZM13.5947 12.9219C11.4076 11.5853 8.69667 11.274 5.53613 11.9961C5.4699 12.0112 5.40697 12.0398 5.35156 12.0791C5.29624 12.1184 5.24898 12.1681 5.21289 12.2256C5.17682 12.2831 5.15195 12.3472 5.14063 12.4141C5.12935 12.4808 5.13142 12.5492 5.14648 12.6152C5.17701 12.7489 5.25987 12.8655 5.37598 12.9385C5.49196 13.0114 5.63202 13.0352 5.76563 13.0049C8.6538 12.345 11.1066 12.6147 13.0547 13.8047C13.1126 13.8402 13.1771 13.8634 13.2441 13.874C13.3113 13.8846 13.3802 13.8821 13.4463 13.8662C13.5123 13.8503 13.575 13.8212 13.6299 13.7812C13.6846 13.7413 13.7313 13.6907 13.7666 13.6328C13.802 13.575 13.8254 13.5103 13.8359 13.4434C13.8465 13.3764 13.844 13.3081 13.8281 13.2422C13.8122 13.1761 13.7832 13.1135 13.7432 13.0586C13.7032 13.0037 13.6527 12.9573 13.5947 12.9219ZM14.5703 10.4844C12.0091 8.91052 8.26246 8.46746 5.24902 9.38184C5.08516 9.43191 4.94799 9.54518 4.86719 9.69629C4.78636 9.84746 4.76893 10.0243 4.81836 10.1885C4.86844 10.3526 4.98147 10.4905 5.13281 10.5713C5.28397 10.6519 5.46098 10.6696 5.625 10.6201C8.26302 9.81928 11.6633 10.2161 13.8936 11.5869C14.1977 11.7741 14.5957 11.6781 14.7832 11.374C14.9705 11.0703 14.8745 10.6717 14.5703 10.4844ZM15.6621 7.68555C12.5833 5.85794 7.71114 5.68648 4.78027 6.57617C4.58339 6.63601 4.41828 6.77164 4.32129 6.95312C4.22436 7.13457 4.20308 7.34707 4.2627 7.54395C4.38685 7.9539 4.8205 8.18582 5.23047 8.06152C7.78369 7.28653 12.1963 7.43199 14.8701 9.02051C15.2377 9.23947 15.7157 9.11777 15.9336 8.74902C15.9856 8.66149 16.0206 8.56466 16.0352 8.46387C16.0497 8.36299 16.0438 8.25989 16.0186 8.16113C15.9934 8.06255 15.9487 7.97011 15.8877 7.88867C15.8265 7.8071 15.7499 7.73745 15.6621 7.68555Z" fill="white"/>
</svg>
