<svg width="26" height="26" viewBox="0 0 26 26" fill="none" xmlns="http://www.w3.org/2000/svg">
<g clip-path="url(#clip0_7883_10346)">
<g filter="url(#filter0_dd_7883_10346)">
<rect x="4" y="4" width="18" height="18" rx="5" fill="url(#paint0_linear_7883_10346)" shape-rendering="crispEdges"/>
<rect x="4" y="4" width="18" height="18" rx="5" stroke="url(#paint1_linear_7883_10346)" stroke-width="0.5" stroke-linecap="round" stroke-linejoin="round" shape-rendering="crispEdges"/>
<rect x="4" y="4" width="18" height="18" rx="5" stroke="url(#paint2_linear_7883_10346)" stroke-opacity="0.2" stroke-width="0.5" stroke-linecap="round" stroke-linejoin="round" shape-rendering="crispEdges"/>
</g>
<path d="M17 1C21.4183 1 25 4.58172 25 9V17C25 21.4183 21.4183 25 17 25H9C4.58172 25 1 21.4183 1 17V9C1 4.58172 4.58172 1 9 1H17ZM9 4C6.23858 4 4 6.23858 4 9V17C4 19.7614 6.23858 22 9 22H17C19.7614 22 22 19.7614 22 17V9C22 6.23858 19.7614 4 17 4H9Z" fill="url(#paint3_linear_7883_10346)"/>
<path d="M9 12.8571L11.4 15L17 10" stroke="white" stroke-width="2" stroke-linecap="round" stroke-linejoin="round"/>
</g>
<rect x="1" y="1" width="24" height="24" rx="8" stroke="url(#paint4_linear_7883_10346)" stroke-width="1.5" stroke-linecap="round" stroke-linejoin="round"/>
<defs>
<filter id="filter0_dd_7883_10346" x="-0.25" y="-0.25" width="26.5" height="26.5" filterUnits="userSpaceOnUse" color-interpolation-filters="sRGB">
<feFlood flood-opacity="0" result="BackgroundImageFix"/>
<feColorMatrix in="SourceAlpha" type="matrix" values="0 0 0 0 0 0 0 0 0 0 0 0 0 0 0 0 0 0 127 0" result="hardAlpha"/>
<feOffset/>
<feGaussianBlur stdDeviation="1"/>
<feComposite in2="hardAlpha" operator="out"/>
<feColorMatrix type="matrix" values="0 0 0 0 0.14902 0 0 0 0 0.717647 0 0 0 0 1 0 0 0 0.25 0"/>
<feBlend mode="normal" in2="BackgroundImageFix" result="effect1_dropShadow_7883_10346"/>
<feColorMatrix in="SourceAlpha" type="matrix" values="0 0 0 0 0 0 0 0 0 0 0 0 0 0 0 0 0 0 127 0" result="hardAlpha"/>
<feOffset/>
<feGaussianBlur stdDeviation="2"/>
<feComposite in2="hardAlpha" operator="out"/>
<feColorMatrix type="matrix" values="0 0 0 0 0.14902 0 0 0 0 0.717647 0 0 0 0 1 0 0 0 0.25 0"/>
<feBlend mode="normal" in2="effect1_dropShadow_7883_10346" result="effect2_dropShadow_7883_10346"/>
<feBlend mode="normal" in="SourceGraphic" in2="effect2_dropShadow_7883_10346" result="shape"/>
</filter>
<linearGradient id="paint0_linear_7883_10346" x1="4" y1="13" x2="22" y2="13" gradientUnits="userSpaceOnUse">
<stop stop-color="#26B7FF"/>
<stop offset="1" stop-color="#1D4AFE"/>
</linearGradient>
<linearGradient id="paint1_linear_7883_10346" x1="13" y1="22" x2="13" y2="4" gradientUnits="userSpaceOnUse">
<stop stop-opacity="0.01"/>
<stop offset="1"/>
</linearGradient>
<linearGradient id="paint2_linear_7883_10346" x1="4" y1="13" x2="22" y2="13" gradientUnits="userSpaceOnUse">
<stop stop-color="#26B7FF"/>
<stop offset="1" stop-color="#1D4AFE"/>
</linearGradient>
<linearGradient id="paint3_linear_7883_10346" x1="13" y1="25" x2="13" y2="-29.6" gradientUnits="userSpaceOnUse">
<stop stop-opacity="0.05"/>
<stop offset="1" stop-opacity="0.5"/>
</linearGradient>
<linearGradient id="paint4_linear_7883_10346" x1="3.4" y1="22.6" x2="25" y2="2.2" gradientUnits="userSpaceOnUse">
<stop stop-color="white"/>
<stop offset="0.451923" stop-color="white" stop-opacity="0.2"/>
<stop offset="0.995192" stop-color="white" stop-opacity="0.8"/>
</linearGradient>
<clipPath id="clip0_7883_10346">
<rect x="1" y="1" width="24" height="24" rx="8" fill="white"/>
</clipPath>
</defs>
</svg>
