<svg width="20" height="20" viewBox="0 0 20 20" fill="none" xmlns="http://www.w3.org/2000/svg">
<path d="M14.8205 9.33072C14.7407 9.29303 14.6602 9.25686 14.579 9.22225C14.4371 6.61433 13.007 5.12169 10.6053 5.10641H10.5731C9.13684 5.10641 7.94213 5.71753 7.20675 6.82898L8.52722 7.73114C9.07626 6.90079 9.93817 6.72433 10.5739 6.72433H10.5953C11.3859 6.72891 11.9833 6.95808 12.369 7.40419C12.6504 7.72961 12.8383 8.17954 12.9311 8.74635C12.181 8.62518 11.4196 8.58853 10.6613 8.63711C8.37845 8.7685 6.90999 10.0954 7.00891 11.9386C7.05875 12.8729 7.52652 13.678 8.32554 14.2028C9.00035 14.6474 9.87069 14.8643 10.7748 14.8154C11.9695 14.7505 12.9065 14.296 13.5599 13.4664C14.056 12.8362 14.3696 12.0196 14.5084 10.9907C15.0774 11.3329 15.4992 11.7828 15.7323 12.3236C16.128 13.2441 16.151 14.7559 14.9133 15.988C13.8283 17.0682 12.5239 17.5349 10.5532 17.5494C8.36695 17.5341 6.71292 16.8352 5.63783 15.4739C4.631 14.1982 4.11109 12.3572 4.09192 10.0007C4.11109 7.64405 4.631 5.80232 5.63783 4.52739C6.71292 3.16614 8.36619 2.46794 10.5532 2.4519C12.7547 2.46718 14.4371 3.16996 15.5536 4.53732C16.1011 5.20878 16.5137 6.05211 16.7859 7.03523L18.3333 6.62426C18.0036 5.4135 17.4845 4.37079 16.779 3.5053C15.3481 1.75065 13.2547 0.852318 10.5585 0.833984H10.5478C7.85625 0.852318 5.78736 1.75447 4.39712 3.51523C3.15947 5.08121 2.52147 7.26135 2.5 9.99454V10.0068C2.52147 12.74 3.15947 14.9193 4.39712 16.4861C5.78736 18.2468 7.85625 19.149 10.547 19.1673H10.5585C12.951 19.1505 14.6373 18.5272 16.026 17.1438C17.8441 15.3349 17.7897 13.0677 17.19 11.6759C16.7606 10.6775 15.9408 9.86697 14.8205 9.33072ZM10.6897 13.1998C9.68895 13.2563 8.64991 12.8087 8.59777 11.8508C8.55942 11.1404 9.1054 10.3467 10.751 10.2527C10.9396 10.2415 11.1247 10.2362 11.3062 10.2367C11.9043 10.2367 12.4625 10.294 12.9709 10.4047C12.7815 12.7636 11.6697 13.1463 10.6897 13.1998Z" fill="white"/>
</svg>
