<svg width="15" height="14" viewBox="0 0 15 14" fill="none" xmlns="http://www.w3.org/2000/svg">
<path d="M10.1388 0L7.86041 0L7.86041 9.20873C7.86041 10.306 6.98413 11.2072 5.89362 11.2072C4.80311 11.2072 3.92681 10.306 3.92681 9.20873C3.92681 8.13113 4.78364 7.24942 5.83521 7.21025V4.89827C3.51787 4.93744 1.64844 6.83798 1.64844 9.20873C1.64844 11.5991 3.55682 13.5192 5.9131 13.5192C8.26935 13.5192 10.1777 11.5795 10.1777 9.20873L10.1777 4.4868C11.0346 5.11379 12.0861 5.48606 13.1961 5.50566V3.19367C11.4825 3.13489 10.1388 1.72419 10.1388 0Z" fill="white"/>
</svg>
