<svg width="28" height="28" viewBox="0 0 28 28" fill="none" xmlns="http://www.w3.org/2000/svg">
<path d="M14.2344 1.01611C21.276 1.01611 26.9844 6.72448 26.9844 13.7661C26.9844 20.8077 21.276 26.5161 14.2344 26.5161C7.19274 26.5161 1.48438 20.8077 1.48438 13.7661C1.48437 6.72448 7.19274 1.01611 14.2344 1.01611ZM14.2344 4.76611C9.26381 4.76611 5.23438 8.79555 5.23438 13.7661C5.23438 18.7367 9.26381 22.7661 14.2344 22.7661C19.2049 22.7661 23.2344 18.7367 23.2344 13.7661C23.2344 8.79555 19.2049 4.76611 14.2344 4.76611Z" fill="url(#paint0_linear_1214_69495)"/>
<path d="M14.2344 1.01611V0.266113V1.01611ZM26.9844 13.7661H27.7344H26.9844ZM14.2344 26.5161V27.2661V26.5161ZM1.48438 13.7661H0.734375H1.48438ZM14.2344 4.76611V4.01611V4.76611ZM5.23438 13.7661H4.48438H5.23438ZM14.2344 22.7661V23.5161V22.7661ZM23.2344 13.7661H23.9844H23.2344ZM14.2344 1.01611V1.76611C20.8618 1.76611 26.2344 7.1387 26.2344 13.7661H26.9844H27.7344C27.7344 6.31027 21.6902 0.266113 14.2344 0.266113V1.01611ZM26.9844 13.7661H26.2344C26.2344 20.3935 20.8618 25.7661 14.2344 25.7661V26.5161V27.2661C21.6902 27.2661 27.7344 21.222 27.7344 13.7661H26.9844ZM14.2344 26.5161V25.7661C7.60696 25.7661 2.23438 20.3935 2.23438 13.7661H1.48438H0.734375C0.734375 21.222 6.77853 27.2661 14.2344 27.2661V26.5161ZM1.48438 13.7661H2.23438C2.23438 7.1387 7.60696 1.76611 14.2344 1.76611V1.01611V0.266113C6.77853 0.266114 0.734375 6.31027 0.734375 13.7661H1.48438ZM14.2344 4.76611V4.01611C8.8496 4.01611 4.48438 8.38134 4.48438 13.7661H5.23438H5.98438C5.98438 9.20976 9.67803 5.51611 14.2344 5.51611V4.76611ZM5.23438 13.7661H4.48438C4.48438 19.1509 8.8496 23.5161 14.2344 23.5161V22.7661V22.0161C9.67803 22.0161 5.98438 18.3225 5.98438 13.7661H5.23438ZM14.2344 22.7661V23.5161C19.6192 23.5161 23.9844 19.1509 23.9844 13.7661H23.2344H22.4844C22.4844 18.3225 18.7907 22.0161 14.2344 22.0161V22.7661ZM23.2344 13.7661H23.9844C23.9844 8.38134 19.6192 4.01611 14.2344 4.01611V4.76611V5.51611C18.7907 5.51611 22.4844 9.20976 22.4844 13.7661H23.2344Z" fill="url(#paint1_linear_1214_69495)"/>
<path d="M23.2344 13.7661C23.2344 8.79555 19.2049 4.76611 14.2344 4.76611C9.26381 4.76611 5.23437 8.79555 5.23437 13.7661C5.23437 18.7367 9.26381 22.7661 14.2344 22.7661C19.2049 22.7661 23.2344 18.7367 23.2344 13.7661Z" fill="url(#paint2_linear_1214_69495)" fill-opacity="0.2"/>
<defs>
<linearGradient id="paint0_linear_1214_69495" x1="14.2344" y1="26.5161" x2="14.2344" y2="-31.4964" gradientUnits="userSpaceOnUse">
<stop stop-color="white" stop-opacity="0.05"/>
<stop offset="1"/>
</linearGradient>
<linearGradient id="paint1_linear_1214_69495" x1="4.03438" y1="23.9661" x2="26.9844" y2="2.29112" gradientUnits="userSpaceOnUse">
<stop stop-color="white"/>
<stop offset="0.451923" stop-color="white" stop-opacity="0.2"/>
<stop offset="0.995192" stop-color="white" stop-opacity="0.8"/>
</linearGradient>
<linearGradient id="paint2_linear_1214_69495" x1="7.03438" y1="6.56611" x2="23.2344" y2="21.8661" gradientUnits="userSpaceOnUse">
<stop stop-color="white" stop-opacity="0.8"/>
<stop offset="0.451923" stop-color="white" stop-opacity="0.2"/>
<stop offset="0.995192" stop-color="white" stop-opacity="0.8"/>
</linearGradient>
</defs>
</svg>
