<svg width="20" height="20" viewBox="0 0 20 20" fill="none" xmlns="http://www.w3.org/2000/svg">
<path fill-rule="evenodd" clip-rule="evenodd" d="M4.16536 0.833984C3.28131 0.833984 2.43346 1.18517 1.80834 1.8103C1.18322 2.43542 0.832031 3.28326 0.832031 4.16732L0.832031 15.834C0.832031 16.718 1.18322 17.5659 1.80834 18.191C2.43346 18.8161 3.28131 19.1673 4.16536 19.1673L15.832 19.1673C16.7161 19.1673 17.5639 18.8161 18.1891 18.191C18.8142 17.5659 19.1654 16.718 19.1654 15.834L19.1654 4.16732C19.1654 3.28326 18.8142 2.43542 18.1891 1.8103C17.5639 1.18517 16.7161 0.833984 15.832 0.833984L4.16536 0.833984ZM4.38286 8.24898L3.7487 7.47565C3.7487 7.47565 6.02453 4.60315 7.61786 4.60315C9.17203 4.60315 9.47787 6.93148 9.73203 8.87065C9.9137 10.254 10.0687 11.4398 10.6337 11.4398C11.1187 11.4398 11.8012 10.5432 12.4612 9.17815C13.1212 7.81315 12.3462 6.57898 10.9195 7.44232C11.232 5.54732 12.7279 4.60315 14.1654 4.60315C15.6029 4.60315 16.2487 5.42482 16.2487 7.00148C16.2487 10.499 11.0887 15.3982 9.4037 15.3982C8.1262 15.3982 7.43953 12.9282 6.84036 10.7707C6.45286 9.37732 6.10203 8.11399 5.6512 7.73149C5.1612 7.31649 4.38286 8.24898 4.38286 8.24898Z" fill="white"/>
</svg>
