<svg width="14" height="14" viewBox="0 0 14 14" fill="none" xmlns="http://www.w3.org/2000/svg">
<path d="M13.3846 4.05751C13.3846 4.05751 13.2525 3.12542 12.8459 2.71615C12.331 2.17749 11.7554 2.17485 11.4913 2.14316C9.60076 2.00586 6.76225 2.00586 6.76225 2.00586H6.75697C6.75697 2.00586 3.91846 2.00586 2.02788 2.14316C1.76384 2.17485 1.18821 2.17749 0.67332 2.71615C0.266688 3.12542 0.137305 4.05751 0.137305 4.05751C0.137305 4.05751 0 5.1533 0 6.24646L0 7.27096C0 8.36411 0.134664 9.45991 0.134664 9.45991C0.134664 9.45991 0.266688 10.392 0.67068 10.8013C1.18557 11.3399 1.86153 11.3214 2.16255 11.3795C3.24514 11.4825 6.75961 11.5142 6.75961 11.5142C6.75961 11.5142 9.60076 11.5089 11.4913 11.3743C11.7554 11.3426 12.331 11.3399 12.8459 10.8013C13.2525 10.392 13.3846 9.45991 13.3846 9.45991C13.3846 9.45991 13.5192 8.36676 13.5192 7.27096V6.24646C13.5192 5.1533 13.3846 4.05751 13.3846 4.05751ZM5.3628 8.51462L5.3628 4.71498L9.01457 6.6214L5.3628 8.51462Z" fill="white"/>
</svg>
